<svg width="872" height="681" viewBox="0 0 872 681" fill="none" xmlns="http://www.w3.org/2000/svg">
<path opacity="0.42" d="M300.424 72.8899C271.098 101.241 248.969 136.296 216.452 161.245C192.513 179.673 163.498 192.034 142.482 213.425C111.85 244.611 103.049 289.532 98.2847 332.03C93.6839 373.139 91.6209 414.559 94.1143 455.824C97.6168 513.419 112.696 574.897 158.615 612.448C174.688 625.574 193.7 634.987 213.083 643.038C265.749 664.903 322.104 677.54 379.455 680.348C409.137 681.766 439.043 680.575 468.83 679.356L583.479 674.649C616.13 673.317 648.663 671.985 681.195 669.83C721.905 667.151 764.678 662.444 797.64 639.494C840.829 609.414 857.229 553.521 852.049 502.702C846.869 451.883 823.583 404.608 800.698 358.482C777.812 312.355 754.586 265.023 749.495 214.204C748.426 203.488 748.115 192.474 743.9 182.48C739.358 171.749 730.706 163.187 722.988 154.257C701.735 129.691 686.568 100.901 666.977 75.158C584.266 -33.5956 391.892 -15.4227 300.424 72.8899Z" fill="#D9DAE8"/>
<path opacity="0.42" d="M479.1 634.25C659.91 634.25 806.486 617.171 806.486 596.104C806.486 575.036 659.91 557.958 479.1 557.958C298.289 557.958 151.714 575.036 151.714 596.104C151.714 617.171 298.289 634.25 479.1 634.25Z" fill="#D9DAE8"/>
<path d="M341.847 551.735L343.642 569.751C343.642 569.751 336.415 580.199 326.99 580.865C317.566 581.531 314.346 577.208 314.346 577.208L315.83 550.7" fill="#AD7862"/>
<path d="M210.456 553.648L208.601 572.161C208.601 572.161 216.021 582.878 225.713 583.573C235.404 584.267 238.699 579.816 238.699 579.816L237.111 552.585" fill="#AD7862"/>
<path d="M233.668 148.87C233.668 148.87 196.178 166.164 195.333 171.834C194.487 177.504 199.577 316.933 199.577 316.933C199.577 316.933 211.747 332.002 249.014 332.002C287.186 332.002 299.326 321.824 298.718 316.721C296.61 299.129 306.509 172.968 305.663 167C304.817 161.032 270.237 148.983 270.237 148.983L233.668 148.87Z" fill="#D9DAE8"/>
<path opacity="0.58" d="M256.984 237.367C256.984 237.367 211.836 245.093 209.046 242.428C206.523 240.018 195.689 169.736 195.333 171.862C194.724 175.945 197.188 242.881 198.612 280.177C221.795 273.486 270.282 249.983 270.282 249.983C266.688 245.041 262.182 240.766 256.984 237.367V237.367Z" fill="url(#paint0_linear_71_146)"/>
<path d="M239.53 237.877C242.793 235.52 246.197 233.347 249.726 231.371C253.644 229.372 271.469 227.628 274.66 228.536C277.851 229.443 276.456 231.215 272.671 231.909C268.886 232.604 265.636 231.824 264.805 234.007C263.974 236.19 269.02 240.67 268.679 244.483C268.337 248.296 268.456 248.041 259.358 251.018C250.26 253.995 241.652 258.006 239.322 251.273C236.992 244.54 236.488 238.855 239.53 237.877Z" fill="#BB826C"/>
<path d="M233.787 127.267C233.787 127.267 233.505 139.755 233.668 148.898C233.787 155.717 236.235 168.744 251.477 168.744C266.72 168.744 268.397 152.13 268.144 148.87C267.951 146.545 269.124 141.782 268.144 134.34C267.12 126.416 234.632 121.724 233.787 127.267Z" fill="#BB826C"/>
<path d="M233.579 147.764C232.494 147.351 231.288 147.336 230.193 147.72C229.097 148.105 228.189 148.863 227.642 149.848C225.357 153.491 225.223 160.806 227.642 170.799C230.061 180.793 232.095 183.345 232.095 183.345C232.095 183.345 242.053 169.878 249.058 169.339C249.014 169.339 235.211 166.745 233.579 147.764Z" fill="#F2F2F2"/>
<path d="M268.248 147.764C269.333 147.351 270.539 147.336 271.634 147.72C272.73 148.105 273.638 148.863 274.185 149.848C276.47 153.491 276.604 160.806 274.185 170.799C271.766 180.793 269.732 183.345 269.732 183.345C269.732 183.345 259.774 169.878 252.769 169.339C252.813 169.339 266.66 166.745 268.248 147.764Z" fill="#F2F2F2"/>
<path d="M199.577 316.933C199.577 316.933 196.802 337.587 202.13 421.519C207.087 499.711 208.497 554.456 208.497 554.456C208.497 554.456 209.031 560.849 223.13 561.034C237.23 561.218 240.94 552.33 240.94 552.33L254.787 351.819L312.238 556.441C312.238 556.441 329.157 565.74 342.351 558.766C351.701 553.804 298.762 316.721 298.762 316.721C298.762 316.721 253.466 340.436 199.577 316.933Z" fill="#525263"/>
<path opacity="0.58" d="M199.577 316.933C199.577 316.933 196.802 337.587 202.13 421.519C207.087 499.711 208.497 554.456 208.497 554.456C208.497 554.456 209.031 560.849 223.13 561.034C237.23 561.218 240.94 552.33 240.94 552.33L254.787 351.819L312.238 556.441C312.238 556.441 329.157 565.74 342.351 558.766C351.701 553.804 298.762 316.721 298.762 316.721C298.762 316.721 253.466 340.436 199.577 316.933Z" fill="url(#paint1_linear_71_146)"/>
<path d="M202.308 165.384C196.974 168.86 192.368 173.26 188.728 178.355C182.792 186.732 172.981 256.986 177.508 276.009C179.423 284.061 248.747 254.009 248.747 254.009C248.747 254.009 247.114 240.542 239.842 235.949C239.842 235.949 205.811 242.924 203.273 240.5C200.735 238.076 202.308 165.384 202.308 165.384Z" fill="#D9DAE8"/>
<path d="M279.75 83.167C280.299 86.0021 281.323 88.5962 281.828 91.5021C282.511 95.3437 282.704 99.3837 284.603 102.842C285.435 104.388 286.592 105.961 286.325 107.676C286.058 109.391 284.143 110.752 282.748 112.113C278.459 116.366 280.017 123.085 278.697 128.457C277.212 134.128 281.472 147.041 263.172 141.612C257.963 140.067 232.599 133.263 230.789 118.251C228.533 99.4829 216.481 75.7249 240.257 67.8009C250.068 64.5264 266.022 59.6217 274.393 68.4813C277.643 71.9118 279.038 76.8164 279.498 81.3242C279.557 81.9905 279.646 82.5858 279.75 83.167Z" fill="#BB826C"/>
<path d="M266.779 52.4773C268.572 52.3792 270.366 52.6471 272.042 53.263C273.719 53.879 275.238 54.8289 276.5 56.0495C277.984 57.6797 279.023 59.9619 281.175 60.6423C282.199 60.9684 283.327 60.855 284.366 61.1527C287.527 62.0315 288.329 66.0148 287.765 69.105C287.201 72.1953 285.865 75.3989 286.889 78.3758C287.481 79.4952 287.868 80.7035 288.032 81.948C287.958 84.1877 285.212 85.5769 282.867 85.4209C280.522 85.265 278.415 84.1168 276.129 83.4789C272.181 82.359 267.937 82.841 263.84 83.3371C261.09 83.4926 258.401 84.1722 255.93 85.3359C254.699 85.9306 253.679 86.8577 252.995 88.0019C252.312 89.1461 251.996 90.457 252.086 91.7715C252.455 92.7812 252.552 93.8635 252.368 94.9184C251.945 95.6057 251.409 96.2232 250.78 96.7471C248.88 98.8592 249.548 102.034 250.142 104.756C250.795 107.747 249.741 115.813 245.689 111.844C242.944 109.151 244.65 104.756 239.901 102.998C232.941 100.376 230.091 111.617 237.393 119.867C244.695 128.117 237.853 133.39 233.119 134.78C228.666 136.07 223.294 115.643 222.581 113.233C219.821 103.778 214.077 87.6181 219.613 78.5033C221.305 75.7391 223.472 73.1025 224.065 69.9981C224.496 67.9143 224.214 65.7455 224.941 63.7042C225.519 62.3886 226.4 61.2138 227.517 60.2668C228.635 59.3197 229.961 58.6245 231.397 58.2325C234.299 57.461 237.29 57.0326 240.302 56.9567C245.481 56.528 250.617 55.7128 255.663 54.5186C259.184 53.4584 262.818 52.7738 266.497 52.4773H266.779Z" fill="#3F3D56"/>
<path d="M268.471 142.845C268.471 142.845 249.949 136.325 241.563 132.653C241.563 132.653 259.002 148.473 268.011 148.36L268.471 142.845Z" fill="#AD7862"/>
<path d="M305.663 167C305.663 167 327.005 257.184 328.326 268.794C329.647 280.403 314.093 286.215 307.133 284.387C291.683 280.233 294.146 255.029 294.146 255.029L305.663 167Z" fill="#D9DAE8"/>
<path d="M327.807 265.491L349.49 332.356L334.649 342.364C334.649 342.364 303.333 299.682 300.855 286.967C298.376 274.251 297.471 256.858 310.561 257.198" fill="#D9DAE8"/>
<path d="M355.708 348.573C354.536 345.653 352.903 342.818 352.013 339.827C351.464 337.97 351.553 336.084 350.217 334.525C345.913 329.521 338.24 332.654 336.326 337.956C335.273 341.484 335.557 345.253 337.127 348.601C338.522 351.989 340.585 355.065 342.262 358.326C344.12 361.52 345.042 365.134 344.934 368.787C344.601 370.607 344.377 372.443 344.266 374.287C344.239 374.882 344.416 375.47 344.77 375.96C345.78 377.122 347.739 376.442 349.045 375.534C357.356 369.524 359.167 357.447 355.708 348.573Z" fill="#BB826C"/>
<path d="M334.589 344.66L330.285 338.508L347.946 327.579L352.874 334.256L334.589 344.66Z" fill="#F2F2F2"/>
<path d="M242.914 232.165L251.21 254.973L244.161 258.687C244.161 258.687 233.237 237.65 232.718 236.616C232.199 235.581 242.914 232.165 242.914 232.165Z" fill="#F2F2F2"/>
<path d="M182.272 574.132C178.428 575.337 174.273 577.392 173.189 581.12C172.106 584.848 174.569 588.633 177.924 590.589C181.278 592.546 185.344 592.957 189.277 593.169C204.715 594.025 220.195 592.44 235.093 588.477C237.003 588.128 238.771 587.273 240.198 586.011C241.92 584.154 241.964 581.404 241.92 578.923L241.727 567.696C241.792 567.06 241.619 566.421 241.237 565.896C240.963 565.661 240.64 565.484 240.29 565.376C239.94 565.269 239.569 565.233 239.204 565.272C232.525 565.145 226.945 566.803 220.444 564.407C216.259 562.862 212.801 560.693 208.571 562.919C205.35 564.578 203.273 567.668 199.874 569.241C194.383 571.779 188.001 572.374 182.272 574.132Z" fill="#525263"/>
<path d="M286.711 576.669C282.852 577.874 278.697 579.929 277.613 583.658C276.53 587.386 278.993 591.171 282.362 593.113C285.731 595.055 289.783 595.494 293.701 595.707C309.139 596.564 324.62 594.978 339.517 591.015C341.429 590.673 343.201 589.818 344.622 588.548C346.344 586.677 346.403 583.941 346.358 581.46L346.151 570.233C346.219 569.594 346.051 568.952 345.676 568.419C345.396 568.188 345.071 568.014 344.719 567.907C344.367 567.799 343.995 567.762 343.628 567.795C336.949 567.682 331.369 569.326 324.883 566.945C320.698 565.4 317.24 563.231 312.921 565.456C309.715 567.115 307.622 570.205 304.224 571.779C298.807 574.259 292.395 574.869 286.711 576.669Z" fill="#525263"/>
<path opacity="0.58" d="M182.272 574.132C178.428 575.337 174.273 577.392 173.189 581.12C172.106 584.848 174.569 588.633 177.924 590.589C181.278 592.546 185.344 592.957 189.277 593.169C204.715 594.025 220.195 592.44 235.093 588.477C237.003 588.128 238.771 587.273 240.198 586.011C241.92 584.154 241.964 581.404 241.92 578.923L241.727 567.696C241.792 567.06 241.619 566.421 241.237 565.896C240.963 565.661 240.64 565.484 240.29 565.376C239.94 565.269 239.569 565.233 239.204 565.272C232.525 565.145 226.945 566.803 220.444 564.407C216.259 562.862 212.801 560.693 208.571 562.919C205.35 564.578 203.273 567.668 199.874 569.241C194.383 571.779 188.001 572.374 182.272 574.132Z" fill="url(#paint2_linear_71_146)"/>
<path opacity="0.58" d="M286.711 576.669C282.852 577.874 278.697 579.929 277.613 583.658C276.53 587.386 278.993 591.171 282.362 593.113C285.731 595.055 289.783 595.494 293.701 595.707C309.139 596.564 324.62 594.978 339.517 591.015C341.429 590.673 343.201 589.818 344.622 588.548C346.344 586.677 346.403 583.941 346.358 581.46L346.151 570.233C346.219 569.594 346.051 568.952 345.676 568.419C345.396 568.188 345.071 568.014 344.719 567.907C344.367 567.799 343.995 567.762 343.628 567.795C336.949 567.682 331.369 569.326 324.883 566.945C320.698 565.4 317.24 563.231 312.921 565.456C309.715 567.115 307.622 570.205 304.224 571.779C298.807 574.259 292.395 574.869 286.711 576.669Z" fill="url(#paint3_linear_71_146)"/>
<path d="M292.039 201.886L294.013 274.634L299.252 281.963L292.039 201.886Z" fill="#D9DAE8"/>
<path d="M239.664 171.82C239.664 171.82 249.37 196.754 250.498 198.753C251.626 200.752 259.818 172.741 259.818 172.741C259.818 172.741 263.069 168.191 249.83 168.701C246.187 168.723 242.639 169.812 239.664 171.82V171.82Z" fill="#F2F2F2"/>
<path d="M298.599 315.516C298.599 315.516 270.4 322.859 256.924 322.391C243.448 321.923 199.458 313.475 199.458 313.475C199.458 313.475 194.561 331.534 197.128 333.32C199.696 335.106 212.875 334.001 231.531 334.738C250.186 335.475 261.54 343.569 276.426 343.243C291.312 342.917 300.172 323.61 300.172 323.61L298.599 315.516Z" fill="#F2F2F2"/>
<path d="M288.311 151.077L259.696 329.892C258.018 340.378 265.558 350.179 276.537 351.781L586.55 397.038C597.529 398.641 607.79 391.44 609.468 380.953L638.082 202.138C639.76 191.651 632.221 181.851 621.242 180.248L311.228 134.991C300.25 133.389 289.989 140.59 288.311 151.077Z" fill="#D9DAE8"/>
<path d="M287.272 157.593L258.657 336.408C256.979 346.895 264.519 356.695 275.498 358.298L585.511 403.555C596.49 405.157 606.751 397.956 608.429 387.469L637.043 208.654C638.721 198.168 631.182 188.367 620.203 186.765L310.189 141.508C299.21 139.905 288.95 147.106 287.272 157.593Z" fill="#D9DAE8"/>
<path opacity="0.58" d="M637.042 208.633L608.428 387.47C608.225 388.738 607.887 389.982 607.418 391.184C605.819 395.342 602.765 398.844 598.774 401.099C594.782 403.354 590.098 404.223 585.513 403.559L275.565 358.297C272.948 357.925 270.433 357.063 268.165 355.761C265.897 354.458 263.921 352.741 262.349 350.708C260.777 348.675 259.641 346.365 259.006 343.912C258.37 341.458 258.248 338.909 258.646 336.41L271.766 254.491L287.26 157.588C288.069 152.553 290.936 148.03 295.231 145.011C299.527 141.992 304.902 140.724 310.175 141.485L620.197 186.761C625.466 187.53 630.201 190.265 633.359 194.367C636.518 198.468 637.843 203.6 637.042 208.633V208.633Z" fill="url(#paint4_linear_71_146)"/>
<path opacity="0.58" d="M620.523 309.265L607.418 391.184C605.819 395.342 602.765 398.844 598.774 401.099C594.782 403.354 590.098 404.223 585.513 403.559L275.565 358.297C272.948 357.925 270.433 357.063 268.165 355.761C265.897 354.458 263.921 352.741 262.349 350.708C260.777 348.675 259.641 346.365 259.006 343.912C258.37 341.458 258.248 338.909 258.646 336.41L271.766 254.491C273.363 250.332 276.416 246.828 280.408 244.572C284.4 242.317 289.086 241.449 293.672 242.116L603.693 287.392C606.302 287.773 608.807 288.64 611.064 289.945C613.322 291.251 615.288 292.968 616.851 294.999C618.414 297.03 619.543 299.335 620.173 301.783C620.803 304.231 620.922 306.773 620.523 309.265V309.265Z" fill="url(#paint5_linear_71_146)"/>
<path d="M302.325 206.284L296.167 244.763C295.237 250.575 299.416 256.006 305.501 256.895L354.165 263.999C360.25 264.887 365.937 260.896 366.867 255.084L373.024 216.605C373.954 210.793 369.775 205.361 363.69 204.473L315.027 197.369C308.942 196.481 303.255 200.472 302.325 206.284Z" fill="#FDB523"/>
<path d="M368.843 241.208L367.834 247.517L347.531 244.554C347.105 245.793 346.395 246.926 345.453 247.87C344.51 248.814 343.36 249.546 342.084 250.011L341.372 250.224L340.644 250.139C338.967 249.941 324.319 248.197 320.43 247.162C316.542 246.127 314.568 241.492 313.826 238.501L297.664 236.134L298.673 229.826L319.718 232.902L320.089 235.34C320.445 238.005 321.573 240.727 322.345 241.081C324.69 241.705 334.04 242.952 340.407 243.718C341.184 242.924 341.6 241.869 341.565 240.783L341.787 237.296L368.843 241.208Z" fill="#EFA92B"/>
<path d="M370.728 229.429L371.737 223.121L351.449 220.158C351.424 218.854 351.097 217.571 350.492 216.402C349.886 215.233 349.017 214.206 347.946 213.396L347.338 212.985L346.611 212.858C344.948 212.574 330.285 210.023 326.397 209.923C322.182 209.81 318.976 213.666 317.373 216.316L301.211 213.963L300.202 220.271L321.247 223.347L322.3 221.136C323.473 218.712 325.462 216.444 326.263 216.316C328.682 216.316 338.003 217.862 344.325 218.953C344.805 219.936 344.874 221.056 344.518 222.086L343.628 225.474L370.728 229.429Z" fill="#EFA92B"/>
<path d="M299.61 224.212L299.397 225.543L369.935 235.841L370.148 234.509L299.61 224.212Z" fill="#EFA92B"/>
<path d="M296.272 245.092L296.059 246.423L366.597 256.721L366.81 255.389L296.272 245.092Z" fill="#EFA92B"/>
<path d="M302.948 203.332L302.735 204.663L373.273 214.961L373.486 213.63L302.948 203.332Z" fill="#EFA92B"/>
<path d="M403.849 218.39L402.525 218.197C402.528 218.022 402.503 217.863 402.45 217.719C402.397 217.574 402.319 217.445 402.217 217.333C402.116 217.222 401.992 217.13 401.847 217.057C401.704 216.985 401.543 216.935 401.366 216.91C401.046 216.863 400.754 216.901 400.49 217.026C400.227 217.148 400.006 217.35 399.827 217.633C399.648 217.913 399.524 218.268 399.456 218.696C399.385 219.137 399.391 219.517 399.474 219.836C399.559 220.155 399.709 220.408 399.922 220.596C400.136 220.783 400.398 220.9 400.711 220.946C400.886 220.971 401.052 220.972 401.209 220.947C401.367 220.923 401.512 220.875 401.643 220.804C401.775 220.73 401.889 220.635 401.986 220.517C402.086 220.4 402.163 220.261 402.22 220.101L403.544 220.3C403.464 220.579 403.334 220.84 403.155 221.083C402.978 221.325 402.758 221.533 402.495 221.706C402.235 221.878 401.937 222.001 401.601 222.076C401.267 222.149 400.902 222.156 400.505 222.098C399.952 222.018 399.479 221.821 399.083 221.508C398.69 221.195 398.405 220.784 398.228 220.274C398.054 219.765 398.021 219.175 398.128 218.503C398.236 217.829 398.455 217.274 398.784 216.838C399.114 216.403 399.516 216.093 399.991 215.909C400.467 215.723 400.977 215.67 401.521 215.749C401.88 215.802 402.204 215.901 402.494 216.046C402.787 216.192 403.036 216.378 403.243 216.606C403.451 216.832 403.607 217.095 403.712 217.394C403.818 217.694 403.864 218.026 403.849 218.39ZM404.145 222.543L405.134 216.363L407.578 216.72C408.045 216.788 408.431 216.93 408.735 217.145C409.041 217.359 409.257 217.63 409.381 217.959C409.508 218.287 409.539 218.654 409.474 219.063C409.408 219.473 409.263 219.813 409.038 220.083C408.814 220.351 408.521 220.539 408.159 220.646C407.799 220.754 407.382 220.774 406.906 220.704L405.27 220.466L405.438 219.415L406.862 219.623C407.112 219.66 407.325 219.656 407.502 219.612C407.678 219.567 407.817 219.483 407.92 219.358C408.024 219.233 408.093 219.069 408.125 218.866C408.158 218.661 408.145 218.482 408.084 218.329C408.026 218.176 407.919 218.052 407.764 217.955C407.61 217.856 407.408 217.788 407.156 217.752L406.273 217.623L405.455 222.734L404.145 222.543ZM407.94 220.219L409.029 223.256L407.583 223.045L406.528 220.013L407.94 220.219ZM409.733 223.359L410.722 217.179L414.895 217.788L414.723 218.866L411.859 218.448L411.624 219.92L414.272 220.307L414.1 221.384L411.451 220.997L411.215 222.473L414.091 222.893L413.918 223.97L409.733 223.359ZM417.142 224.441L414.947 224.12L415.936 217.94L418.15 218.263C418.772 218.354 419.289 218.556 419.699 218.869C420.109 219.18 420.398 219.584 420.566 220.08C420.737 220.576 420.77 221.145 420.668 221.787C420.565 222.431 420.354 222.966 420.036 223.393C419.72 223.82 419.316 224.125 418.823 224.306C418.331 224.488 417.771 224.532 417.142 224.441ZM416.436 223.192L417.267 223.313C417.654 223.37 417.991 223.349 418.277 223.251C418.565 223.151 418.799 222.965 418.978 222.695C419.16 222.423 419.288 222.057 419.361 221.596C419.435 221.14 419.427 220.757 419.338 220.447C419.251 220.138 419.087 219.896 418.845 219.721C418.602 219.545 418.288 219.429 417.901 219.373L417.066 219.251L416.436 223.192ZM423.44 219.036L422.451 225.216L421.142 225.024L422.131 218.845L423.44 219.036ZM424.109 220.236L424.282 219.159L429.368 219.901L429.195 220.978L427.299 220.702L426.483 225.804L425.189 225.615L426.005 220.513L424.109 220.236ZM437.294 223.272L435.97 223.079C435.973 222.904 435.948 222.745 435.894 222.602C435.841 222.456 435.764 222.327 435.662 222.216C435.56 222.104 435.437 222.012 435.292 221.939C435.148 221.867 434.988 221.818 434.811 221.792C434.49 221.745 434.198 221.784 433.935 221.908C433.672 222.03 433.451 222.233 433.272 222.515C433.093 222.796 432.969 223.15 432.9 223.579C432.83 224.019 432.836 224.399 432.919 224.718C433.004 225.037 433.153 225.291 433.367 225.478C433.58 225.666 433.843 225.782 434.156 225.828C434.331 225.854 434.497 225.854 434.654 225.83C434.812 225.805 434.957 225.758 435.088 225.686C435.22 225.613 435.334 225.517 435.431 225.4C435.53 225.282 435.608 225.143 435.665 224.983L436.988 225.182C436.909 225.461 436.779 225.722 436.6 225.966C436.423 226.207 436.203 226.415 435.94 226.589C435.679 226.761 435.381 226.884 435.045 226.958C434.712 227.031 434.347 227.039 433.95 226.981C433.397 226.9 432.923 226.703 432.528 226.39C432.134 226.077 431.849 225.666 431.673 225.157C431.499 224.648 431.465 224.057 431.573 223.385C431.681 222.711 431.899 222.156 432.229 221.721C432.559 221.285 432.961 220.975 433.436 220.791C433.911 220.606 434.421 220.552 434.966 220.632C435.324 220.684 435.649 220.783 435.939 220.928C436.232 221.074 436.481 221.261 436.688 221.489C436.895 221.714 437.051 221.977 437.156 222.276C437.263 222.576 437.309 222.908 437.294 223.272ZM438.541 227.564L437.138 227.36L440.265 221.492L441.952 221.738L443.098 228.23L441.695 228.025L440.907 223.031L440.858 223.024L438.541 227.564ZM438.842 225.123L442.156 225.606L441.993 226.626L438.679 226.142L438.842 225.123ZM443.843 228.338L444.832 222.159L447.275 222.515C447.743 222.584 448.129 222.725 448.433 222.941C448.739 223.154 448.955 223.425 449.079 223.754C449.206 224.082 449.237 224.45 449.172 224.858C449.106 225.268 448.961 225.609 448.736 225.878C448.512 226.146 448.219 226.334 447.857 226.442C447.497 226.55 447.08 226.569 446.604 226.5L444.968 226.261L445.136 225.211L446.56 225.419C446.81 225.455 447.023 225.451 447.2 225.407C447.376 225.363 447.515 225.278 447.618 225.153C447.722 225.028 447.791 224.864 447.823 224.661C447.856 224.456 447.843 224.277 447.782 224.124C447.724 223.971 447.617 223.847 447.462 223.75C447.308 223.651 447.106 223.584 446.854 223.547L445.971 223.418L445.153 228.53L443.843 228.338ZM447.638 226.014L448.727 229.051L447.281 228.84L446.226 225.808L447.638 226.014ZM451.627 229.475L449.431 229.154L450.42 222.974L452.634 223.298C453.257 223.389 453.773 223.591 454.183 223.904C454.593 224.215 454.882 224.618 455.051 225.114C455.221 225.61 455.255 226.179 455.152 226.821C455.049 227.465 454.838 228 454.52 228.427C454.204 228.855 453.8 229.159 453.307 229.34C452.816 229.522 452.256 229.567 451.627 229.475ZM450.92 228.226L451.751 228.347C452.138 228.404 452.475 228.383 452.761 228.285C453.049 228.185 453.283 228 453.462 227.729C453.644 227.457 453.772 227.091 453.846 226.63C453.919 226.174 453.911 225.791 453.822 225.481C453.735 225.172 453.571 224.93 453.329 224.755C453.087 224.579 452.772 224.463 452.385 224.407L451.55 224.285L450.92 228.226Z" fill="#D9DAE8"/>
<path opacity="0.32" d="M341.222 305.721L299.936 299.518C294.252 298.664 288.919 302.373 288.025 307.802L287.688 309.847C286.794 315.276 290.677 320.369 296.361 321.223L337.647 327.426C343.331 328.28 348.664 324.572 349.558 319.143L349.895 317.098C350.789 311.669 346.906 306.576 341.222 305.721Z" fill="#D9DAE8"/>
<path opacity="0.32" d="M418.376 320.909L377 314.522C371.304 313.643 365.939 317.341 365.019 322.781L364.672 324.83C363.751 330.271 367.623 335.395 373.319 336.274L414.695 342.661C420.391 343.54 425.756 339.843 426.676 334.402L427.023 332.353C427.944 326.912 424.072 321.788 418.376 320.909Z" fill="#D9DAE8"/>
<path opacity="0.32" d="M497.173 331.756L455.887 325.553C450.203 324.699 444.87 328.408 443.976 333.837L443.639 335.881C442.745 341.311 446.628 346.404 452.312 347.258L493.598 353.461C499.282 354.315 504.615 350.607 505.509 345.178L505.846 343.133C506.74 337.704 502.857 332.61 497.173 331.756Z" fill="#D9DAE8"/>
<path opacity="0.32" d="M575.14 344.788L533.855 338.585C528.17 337.731 522.838 341.439 521.943 346.869L521.607 348.913C520.713 354.342 524.596 359.436 530.28 360.29L571.565 366.493C577.25 367.347 582.582 363.638 583.477 358.209L583.813 356.165C584.707 350.736 580.824 345.642 575.14 344.788Z" fill="#D9DAE8"/>
<path d="M729.474 547.312L750.029 580.596C754.202 579.643 757.896 577.328 760.472 574.052C763.049 570.776 764.348 566.743 764.144 562.65L746.334 530.684" fill="#F1DFCE"/>
<path d="M750.029 580.596C750.029 580.596 744.093 604.58 735.886 607.387C727.678 610.194 747.432 606.494 751.291 602.809C755.15 599.123 760.878 573.352 760.878 573.352" fill="#F1DFCE"/>
<path d="M591.494 555.519L588.347 590.32C591.942 591.711 595.932 591.859 599.628 590.738C603.324 589.617 606.495 587.298 608.591 584.182L613.043 551.692" fill="#F1DFCE"/>
<path d="M588.347 590.32C588.347 590.32 566.085 609.457 558.501 607.33C550.917 605.204 572.23 608.039 577.083 607.245C581.936 606.452 606.528 592.56 606.528 592.56" fill="#F1DFCE"/>
<path d="M608.739 583.048C608.739 583.048 613.771 587.896 613.192 591.964C612.613 596.033 610.387 613.227 610.387 613.227C609.312 613.517 608.163 613.411 607.166 612.93C605.534 612.108 605.92 594.133 602.536 598.939C596.154 607.983 598.247 611.413 583.776 613.454C579.754 614.021 541.137 609.882 563.874 604.836C563.874 604.836 578.077 605.899 584.192 600.059C590.306 594.218 600.755 581.531 608.739 583.048Z" fill="#525263"/>
<path d="M624.798 120.023C624.634 121.866 623.061 143.242 624.798 152.357C626.534 161.472 632.604 173.918 640.426 172.203C648.247 170.487 651.705 168.049 651.705 172.203C651.429 176.38 650.849 180.534 649.969 184.634C649.969 184.634 659.512 191.269 668.194 188.774C676.876 186.279 678.583 179.659 678.583 179.659C678.583 179.659 674.249 174.683 675.986 161.415C677.722 148.147 690.738 119.144 672.513 105.04C661.441 96.5486 627.009 95.0035 624.798 120.023Z" fill="#F1DFCE"/>
<path d="M623.937 100.135C623.937 100.135 611.5 109.973 619.484 124.417C621.859 128.67 630.794 117.542 642.088 120.023C653.382 122.504 650.77 149.876 653.367 149.04C655.965 148.204 652.507 139.117 657.701 134.113C662.896 129.109 668.09 136.608 667.259 144.036C666.428 151.464 662.806 152.329 662.806 152.329C662.806 152.329 663.459 160.338 664.81 162.932C665.819 164.846 679.948 159.076 679.948 159.076C679.948 159.076 691.495 129.109 688.853 119.173C686.211 109.236 674.101 95.0744 661.07 95.0744C648.039 95.0744 632.604 91.006 623.937 100.135Z" fill="#3F3D56"/>
<path d="M579.131 239.89C579.131 239.89 574.678 223.475 568.95 219.86C563.221 216.246 561.143 213.524 559.837 214.545C558.531 215.565 560.861 219.067 560.861 219.067C560.861 219.067 565.165 223.021 562.212 223.475C559.258 223.929 538.258 211.142 532.321 211.596C526.385 212.05 529.946 220.427 528.403 224.155C526.859 227.884 541.552 237.849 547.474 241.01C553.396 244.171 561.336 249.728 565.121 251.769C568.905 253.81 579.235 244.767 579.131 239.89Z" fill="#F1DFCE"/>
<path d="M717.007 350.642L711.397 431.145L762.704 554.286C762.704 554.286 764.633 566.08 739.64 569.666L671.37 439.04L657.716 338.976" fill="#D9DAE8"/>
<path opacity="0.58" d="M717.007 350.642L711.397 431.145L762.704 554.286C762.704 554.286 764.633 566.08 739.64 569.666L671.37 439.04L657.716 338.976" fill="url(#paint6_linear_71_146)"/>
<path d="M625.124 342.605L583.271 576.967C583.271 576.967 591.598 586.337 616.783 580.794L640.663 476.08L696.14 354.172C696.14 354.172 659.957 322.249 625.124 342.605Z" fill="#D9DAE8"/>
<path opacity="0.58" d="M625.124 342.605L583.271 576.967C583.271 576.967 591.598 586.337 616.783 580.794L640.663 476.08L696.14 354.172C696.14 354.172 659.957 322.249 625.124 342.605Z" fill="url(#paint7_linear_71_146)"/>
<path d="M668.981 219.577C668.981 219.577 655.49 285.592 650.741 296.762C645.991 307.932 627.632 328.174 612.984 317.104C608.686 313.588 604.69 309.749 601.037 305.621L598.929 303.382C582.173 284.869 560.861 256.858 560.861 256.858C561.841 237.948 579.131 239.961 579.131 239.961L611.901 277.866C611.901 277.866 631.788 202.524 642.504 189.369C649.049 181.374 665.508 179.801 665.508 179.801C676.283 182.381 668.981 219.577 668.981 219.577Z" fill="white"/>
<path d="M686.582 185.017C701.736 203.119 715.256 332.441 719.144 340.691C719.144 340.691 693.677 350.756 654.436 353.066C643.645 353.574 632.837 352.46 622.408 349.764C622.408 349.764 639.906 242.385 640.455 227.217C641.005 212.05 648.232 184.606 648.232 184.606C648.232 184.606 674.561 170.658 686.582 185.017Z" fill="#F2F2F2"/>
<path d="M623.67 350.161C623.67 350.161 617.466 365.286 619.01 365.753C620.553 366.221 635.988 358.212 640.752 360.934C645.516 363.655 659.527 377.604 678.256 381.332C696.986 385.06 716.191 371.041 717.007 360.707C717.824 350.373 719.144 340.72 719.144 340.72C719.144 340.72 635.32 355.292 623.67 350.161Z" fill="#F2F2F2"/>
<path opacity="0.58" d="M653.338 242.428C653.338 242.428 639.357 305.636 635.632 312.752C631.907 319.868 626.994 319.584 626.994 319.584L626.312 325.51L638.422 321.654L653.338 242.428Z" fill="url(#paint8_linear_71_146)"/>
<path d="M678.464 105.777C678.464 105.777 689.64 89.9996 702.21 100.56C714.781 111.121 700.459 129.237 703.606 145.354C706.752 161.472 719.664 182.636 712.674 188.391C705.683 194.146 710.937 188.391 710.937 188.391C710.937 188.391 708.444 172.67 696.6 169.566C684.757 166.462 677.425 157.432 677.069 142.278" fill="#3F3D56"/>
<path d="M766.266 560.708C766.266 560.708 762.689 562.621 760.908 570.418C759.127 578.214 754.482 597.62 749.807 599.789C745.132 601.958 743.38 599.662 742.134 599.789C740.887 599.917 731.626 609.117 732.116 610.01C732.605 610.903 733.437 611.427 740.353 610.01C747.269 608.592 760.344 603.999 760.671 602.086C760.997 600.172 764.366 583.19 767.498 582.935C770.629 582.679 768.062 601.065 769.175 601.192C770.288 601.32 771.92 601.575 772.143 599.534C772.366 597.493 775.467 575.648 774.339 570.545C773.212 565.442 770.629 562.366 766.266 560.708Z" fill="#525263"/>
<path opacity="0.58" d="M608.739 583.048C608.739 583.048 613.771 587.896 613.192 591.964C612.613 596.033 610.387 613.227 610.387 613.227C609.312 613.517 608.163 613.411 607.166 612.93C605.534 612.108 605.92 594.133 602.536 598.939C596.154 607.983 598.247 611.413 583.776 613.454C579.754 614.021 541.137 609.882 563.874 604.836C563.874 604.836 578.077 605.899 584.192 600.059C590.306 594.218 600.755 581.531 608.739 583.048Z" fill="url(#paint9_linear_71_146)"/>
<path opacity="0.58" d="M766.266 560.708C766.266 560.708 762.689 562.621 760.908 570.418C759.127 578.214 754.482 597.62 749.807 599.789C745.132 601.958 743.38 599.662 742.134 599.789C740.887 599.917 731.626 609.117 732.116 610.01C732.605 610.903 733.437 611.427 740.353 610.01C747.269 608.592 760.344 603.999 760.671 602.086C760.997 600.172 764.366 583.19 767.498 582.935C770.629 582.679 768.062 601.065 769.175 601.192C770.288 601.32 771.92 601.575 772.143 599.534C772.366 597.493 775.467 575.648 774.339 570.545C773.212 565.442 770.629 562.366 766.266 560.708Z" fill="url(#paint10_linear_71_146)"/>
<path d="M661.782 158.467C664.291 158.467 666.324 156.525 666.324 154.129C666.324 151.733 664.291 149.791 661.782 149.791C659.274 149.791 657.241 151.733 657.241 154.129C657.241 156.525 659.274 158.467 661.782 158.467Z" fill="#D9DAE8"/>
<path d="M574.263 323.043L647.49 331.647L641.227 419.932L629.873 425.531L567.213 408.705L574.263 323.043Z" fill="#D9DAE8"/>
<path opacity="0.58" d="M574.263 323.043L647.49 331.647L641.227 419.932L629.873 425.531L567.213 408.705L574.263 323.043Z" fill="url(#paint11_linear_71_146)"/>
<path d="M562.909 328.656L636.136 337.261L629.873 425.531L555.859 414.318L562.909 328.656Z" fill="#D9DAE8"/>
<path d="M562.909 328.656L574.263 323.043L647.49 331.647L636.137 337.261L562.909 328.656Z" fill="#D9DAE8"/>
<path opacity="0.58" d="M562.909 328.656L574.263 323.043L647.49 331.647L636.137 337.261L562.909 328.656Z" fill="url(#paint12_linear_71_146)"/>
<path d="M637.25 326.828C637.309 326.576 637.309 326.314 637.25 326.062C637.134 325.807 636.936 325.594 636.686 325.453C635.639 324.938 634.459 324.722 633.287 324.829C625.228 324.829 617.155 325.297 609.096 325.722C608.573 325.711 608.057 325.843 607.612 326.105C607.281 326.388 607.027 326.743 606.869 327.14C606.234 328.521 605.699 329.942 605.267 331.392C605.127 331.671 605.054 331.976 605.054 332.285C605.054 332.594 605.127 332.9 605.267 333.178C605.572 333.483 605.964 333.695 606.395 333.788C608.998 334.446 611.662 334.86 614.349 335.021L631.966 336.666C633.346 336.793 634.4 337.204 635.231 336.127C635.682 335.321 635.988 334.449 636.137 333.547C636.787 331.358 637.161 329.102 637.25 326.828V326.828Z" fill="#D9DAE8"/>
<path opacity="0.58" d="M636.597 327.069C636.656 326.822 636.656 326.565 636.597 326.318C636.489 326.057 636.29 325.842 636.033 325.708C634.988 325.186 633.806 324.969 632.634 325.084C624.575 325.084 616.501 325.552 608.443 325.977C607.948 325.905 607.442 326.01 607.023 326.272C606.604 326.533 606.301 326.933 606.172 327.395C605.534 328.775 604.999 330.196 604.569 331.647C604.428 331.924 604.355 332.227 604.355 332.533C604.355 332.84 604.428 333.143 604.569 333.419C604.866 333.734 605.262 333.948 605.697 334.029C608.301 334.685 610.965 335.103 613.652 335.276L631.269 336.907C632.649 337.034 633.703 337.459 634.534 336.382C634.98 335.575 635.286 334.703 635.439 333.802C636.104 331.61 636.492 329.349 636.597 327.069V327.069Z" fill="url(#paint13_linear_71_146)"/>
<path d="M638.971 331.208C639.031 331.062 639.031 330.9 638.971 330.754C638.83 330.574 638.633 330.44 638.407 330.372C637.331 330.005 636.196 329.822 635.053 329.833C626.994 329.493 618.921 329.365 610.862 329.252C610.361 329.214 609.858 329.267 609.378 329.408C609.066 329.525 608.798 329.727 608.606 329.989C607.943 330.754 607.361 331.581 606.869 332.455C606.676 332.796 606.513 333.193 606.869 333.504C607.195 333.727 607.572 333.872 607.968 333.93C610.58 334.444 613.221 334.813 615.878 335.035L633.421 336.821C634.786 336.963 635.84 337.261 636.7 336.666C637.142 336.239 637.481 335.727 637.695 335.163C638.377 333.933 638.809 332.591 638.971 331.208V331.208Z" fill="#D9DAE8"/>
<path opacity="0.58" d="M638.303 331.321C638.362 331.18 638.362 331.023 638.303 330.882C638.17 330.696 637.978 330.557 637.754 330.485C636.674 330.116 635.532 329.938 634.385 329.961C626.326 329.606 618.268 329.493 610.194 329.365C609.693 329.335 609.191 329.388 608.71 329.521C608.407 329.652 608.146 329.858 607.953 330.116C607.287 330.878 606.701 331.699 606.202 332.569C606.009 332.909 605.845 333.32 606.202 333.632C606.534 333.849 606.915 333.99 607.315 334.043C609.925 334.565 612.567 334.934 615.225 335.149L632.768 336.949C634.133 337.091 635.187 337.388 636.048 336.779C636.486 336.359 636.821 335.85 637.027 335.291C637.713 334.057 638.147 332.71 638.303 331.321V331.321Z" fill="url(#paint14_linear_71_146)"/>
<path d="M591.983 319.457C592.496 318.361 593.401 317.476 594.536 316.962C595.546 316.728 596.599 316.728 597.608 316.962C602.061 317.5 606.766 317.16 610.713 319.131C611.249 319.348 611.701 319.719 612.005 320.194C612.257 320.762 612.319 321.391 612.183 321.994C611.804 325.067 611.088 328.094 610.045 331.024C609.922 331.44 609.715 331.83 609.437 332.172C609.066 332.597 609.303 333.859 608.725 333.873C603.604 333.972 597.401 332.356 592.28 332.115C589.164 331.974 589.045 330.839 589.312 327.636C589.592 324.761 590.502 321.974 591.983 319.457V319.457Z" fill="#D9DAE8"/>
<path opacity="0.58" d="M591.983 319.457C592.496 318.361 593.401 317.476 594.536 316.962C595.546 316.728 596.599 316.728 597.608 316.962C602.061 317.5 606.766 317.16 610.713 319.131C611.249 319.348 611.701 319.719 612.005 320.194C612.257 320.762 612.319 321.391 612.183 321.994C611.804 325.067 611.088 328.094 610.045 331.024C609.922 331.44 609.715 331.83 609.437 332.172C609.066 332.597 609.303 333.859 608.725 333.873C603.604 333.972 597.401 332.356 592.28 332.115C589.164 331.974 589.045 330.839 589.312 327.636C589.592 324.761 590.502 321.974 591.983 319.457V319.457Z" fill="url(#paint15_linear_71_146)"/>
<path d="M611.901 277.866C611.901 277.866 624.783 306.089 623.774 336.51L627.365 336.892C627.365 336.892 623.254 288.455 613.073 274.606C613.029 274.606 608.012 272.196 611.901 277.866Z" fill="#D9DAE8"/>
<path d="M600.206 307.819C600.206 308.286 600.28 308.74 600.31 309.236C600.329 309.857 600.289 310.479 600.191 311.093C599.36 317.047 598.558 323 597.742 328.954L594.328 328.855C594.321 323.096 595.003 317.356 596.362 311.745C596.974 308.97 597.798 306.241 598.825 303.58C598.825 303.509 598.825 303.424 598.929 303.339L601.037 305.65C600.616 306.315 600.334 307.051 600.206 307.819V307.819Z" fill="#D9DAE8"/>
<path d="M571.384 317.982C571.391 317.648 571.523 317.326 571.755 317.075C572.016 316.885 572.332 316.776 572.66 316.763C580.495 315.644 588.473 315.827 596.243 317.302L597.415 329.479C597.519 330.443 597.504 331.605 596.658 332.115C596.18 332.354 595.636 332.448 595.1 332.385C588.761 332.272 582.444 331.632 576.222 330.471C575.168 330.272 572.927 330.244 572.111 329.55C571.294 328.855 571.384 327.593 571.25 326.714C570.864 323.812 570.909 320.873 571.384 317.982V317.982Z" fill="#D9DAE8"/>
<path opacity="0.58" d="M571.384 317.982C571.391 317.648 571.523 317.326 571.755 317.075C572.016 316.885 572.332 316.776 572.66 316.763C580.495 315.644 588.473 315.827 596.243 317.302L597.415 329.479C597.519 330.443 597.504 331.605 596.658 332.115C596.18 332.354 595.636 332.448 595.1 332.385C588.761 332.272 582.444 331.632 576.222 330.471C575.168 330.272 572.927 330.244 572.111 329.55C571.294 328.855 571.384 327.593 571.25 326.714C570.864 323.812 570.909 320.873 571.384 317.982V317.982Z" fill="url(#paint16_linear_71_146)"/>
<path opacity="0.58" d="M555.859 414.318L599.716 421.42L579.353 331.024L562.909 328.656L555.859 414.318Z" fill="url(#paint17_linear_71_146)"/>
<path d="M338.685 364.407C338.722 363.937 338.903 363.489 339.205 363.117C339.541 362.82 339.957 362.618 340.407 362.536C341.707 362.142 343.108 362.177 344.384 362.635C345.024 362.878 345.563 363.315 345.92 363.878C346.276 364.441 346.43 365.099 346.358 365.753C347.119 364.401 348.045 363.14 349.119 361.997C349.594 361.487 350.232 360.962 350.915 361.118C351.224 361.211 351.501 361.383 351.716 361.614C352.492 362.341 353.072 363.237 353.408 364.224C353.744 365.211 353.825 366.261 353.646 367.284C353.923 365.541 354.832 363.946 356.213 362.777C356.416 362.583 356.674 362.45 356.955 362.394C357.489 362.394 357.92 362.819 358.202 363.259C359.507 365.397 359.99 367.904 359.567 370.346C359.615 368.912 360 367.507 360.695 366.235C360.844 365.952 361.066 365.654 361.393 365.64C361.622 365.666 361.834 365.772 361.986 365.938C362.734 366.621 363.268 367.489 363.53 368.445C363.792 369.401 363.771 370.407 363.471 371.353C362.625 373.961 359.79 375.52 357.029 376.172C355.648 376.483 354.234 376.64 352.814 376.64C349.717 376.515 346.65 376.01 343.687 375.138C342.735 374.967 341.83 374.61 341.03 374.089C337.899 371.665 338.136 367.766 338.685 364.407Z" fill="#BB826C"/>
<defs>
<linearGradient id="paint0_linear_71_146" x1="195.243" y1="225.998" x2="270.282" y2="225.998" gradientUnits="userSpaceOnUse">
<stop offset="0.01"/>
<stop offset="0.13" stop-opacity="0.69"/>
<stop offset="1" stop-opacity="0"/>
</linearGradient>
<linearGradient id="paint1_linear_71_146" x1="298.762" y1="379.532" x2="198.655" y2="610.409" gradientUnits="userSpaceOnUse">
<stop offset="0.01"/>
<stop offset="0.13" stop-opacity="0.69"/>
<stop offset="1" stop-opacity="0"/>
</linearGradient>
<linearGradient id="paint2_linear_71_146" x1="223.991" y1="517.629" x2="165.834" y2="765.73" gradientUnits="userSpaceOnUse">
<stop offset="0.01"/>
<stop offset="0.13" stop-opacity="0.69"/>
<stop offset="1" stop-opacity="0"/>
</linearGradient>
<linearGradient id="paint3_linear_71_146" x1="323.102" y1="540.862" x2="264.931" y2="788.964" gradientUnits="userSpaceOnUse">
<stop offset="0.01"/>
<stop offset="0.13" stop-opacity="0.69"/>
<stop offset="1" stop-opacity="0"/>
</linearGradient>
<linearGradient id="paint4_linear_71_146" x1="417.807" y1="461.146" x2="491.143" y2="-48.9873" gradientUnits="userSpaceOnUse">
<stop offset="0.01"/>
<stop offset="0.13" stop-opacity="0.69"/>
<stop offset="1" stop-opacity="0"/>
</linearGradient>
<linearGradient id="paint5_linear_71_146" x1="407.252" y1="556.274" x2="465.051" y2="94.4399" gradientUnits="userSpaceOnUse">
<stop offset="0.01"/>
<stop offset="0.13" stop-opacity="0.69"/>
<stop offset="1" stop-opacity="0"/>
</linearGradient>
<linearGradient id="paint6_linear_71_146" x1="625.866" y1="396.571" x2="850.893" y2="549.654" gradientUnits="userSpaceOnUse">
<stop offset="0.01"/>
<stop offset="0.13" stop-opacity="0.69"/>
<stop offset="1" stop-opacity="0"/>
</linearGradient>
<linearGradient id="paint7_linear_71_146" x1="553.648" y1="385.727" x2="750.074" y2="585.503" gradientUnits="userSpaceOnUse">
<stop offset="0.01"/>
<stop offset="0.13" stop-opacity="0.69"/>
<stop offset="1" stop-opacity="0"/>
</linearGradient>
<linearGradient id="paint8_linear_71_146" x1="626.312" y1="283.933" x2="653.338" y2="283.933" gradientUnits="userSpaceOnUse">
<stop offset="0.01"/>
<stop offset="0.13" stop-opacity="0.69"/>
<stop offset="1" stop-opacity="0"/>
</linearGradient>
<linearGradient id="paint9_linear_71_146" x1="604.732" y1="495.841" x2="548.857" y2="827.756" gradientUnits="userSpaceOnUse">
<stop offset="0.01"/>
<stop offset="0.13" stop-opacity="0.69"/>
<stop offset="1" stop-opacity="0"/>
</linearGradient>
<linearGradient id="paint10_linear_71_146" x1="767.156" y1="523.185" x2="711.281" y2="855.101" gradientUnits="userSpaceOnUse">
<stop offset="0.01"/>
<stop offset="0.13" stop-opacity="0.69"/>
<stop offset="1" stop-opacity="0"/>
</linearGradient>
<linearGradient id="paint11_linear_71_146" x1="581.416" y1="379.206" x2="678.26" y2="353.927" gradientUnits="userSpaceOnUse">
<stop offset="0.01"/>
<stop offset="0.13" stop-opacity="0.69"/>
<stop offset="1" stop-opacity="0"/>
</linearGradient>
<linearGradient id="paint12_linear_71_146" x1="605.474" y1="312.61" x2="604.391" y2="388.918" gradientUnits="userSpaceOnUse">
<stop offset="0.01"/>
<stop offset="0.13" stop-opacity="0.69"/>
<stop offset="1" stop-opacity="0"/>
</linearGradient>
<linearGradient id="paint13_linear_71_146" x1="611.559" y1="339.784" x2="637.894" y2="313.386" gradientUnits="userSpaceOnUse">
<stop offset="0.01"/>
<stop offset="0.13" stop-opacity="0.69"/>
<stop offset="1" stop-opacity="0"/>
</linearGradient>
<linearGradient id="paint14_linear_71_146" x1="613.173" y1="340.712" x2="638.721" y2="317.481" gradientUnits="userSpaceOnUse">
<stop offset="0.01"/>
<stop offset="0.13" stop-opacity="0.69"/>
<stop offset="1" stop-opacity="0"/>
</linearGradient>
<linearGradient id="paint15_linear_71_146" x1="594.952" y1="329.379" x2="611.252" y2="318.698" gradientUnits="userSpaceOnUse">
<stop offset="0.01"/>
<stop offset="0.13" stop-opacity="0.69"/>
<stop offset="1" stop-opacity="0"/>
</linearGradient>
<linearGradient id="paint16_linear_71_146" x1="582.307" y1="338.041" x2="586.417" y2="308.629" gradientUnits="userSpaceOnUse">
<stop offset="0.01"/>
<stop offset="0.13" stop-opacity="0.69"/>
<stop offset="1" stop-opacity="0"/>
</linearGradient>
<linearGradient id="paint17_linear_71_146" x1="506.898" y1="409.825" x2="651.453" y2="335.761" gradientUnits="userSpaceOnUse">
<stop offset="0.01"/>
<stop offset="0.13" stop-opacity="0.69"/>
<stop offset="1" stop-opacity="0"/>
</linearGradient>
</defs>
</svg>
