<svg width="1440" height="1024" viewBox="0 0 1440 1024" fill="none" xmlns="http://www.w3.org/2000/svg">
<path d="M587.568 909.5C424.662 985.095 289.079 792.456 129.068 874C70.6789 903.756 14.6885 968.129 -25 1021.99H1389.37C1396.25 943.061 1406.78 817.357 1417.12 673.989L1416.07 -3.51132H1278.89C1207.97 230.771 1337.43 583.463 1094.07 590.5C996.181 593.331 956.799 496.79 859.068 503C668.552 515.105 760.732 829.145 587.568 909.5Z" fill="#FFE087" style="mix-blend-mode:darken"/>
<path d="M615 909.511C452.094 985.107 316.512 792.468 156.5 874.011C96.8538 904.408 39.7105 970.929 -0.108887 1025.46H1416.5V-0.5H1305.43C1236.49 233.78 1363.82 583.504 1121.5 590.511C1023.61 593.342 984.231 496.802 886.5 503.011C695.984 515.116 788.164 829.156 615 909.511Z" fill="#5639A6"/>
<path d="M670 909.511C507.094 985.107 371.512 792.468 211.5 874.011C151.841 904.414 94.6855 970.958 54.865 1025.5H1439.5V-0.5H1360.43C1291.49 233.78 1418.82 583.504 1176.5 590.511C1078.61 593.342 1039.23 496.802 941.5 503.011C750.984 515.116 843.164 829.156 670 909.511Z" fill="#20236D" style="mix-blend-mode:darken"/>
</svg>
