<svg width="1385" height="801" viewBox="0 0 1385 801" fill="none" xmlns="http://www.w3.org/2000/svg">
<g clip-path="url(#clip0_4_9)">
<g style="mix-blend-mode:darken">
<path d="M565.126 711.435C408.442 770.567 278.038 619.88 124.138 683.666C67.9794 706.942 14.1275 757.296 -24.0451 799.428H1344.5C1351.12 737.687 1334.55 634.146 1344.5 522L1336.3 265V-2.74664H1230.04C1161.83 180.515 1286.35 456.4 1052.28 461.905C958.132 464.119 920.255 388.602 826.256 393.46C643.017 402.929 731.676 648.579 565.126 711.435Z" fill="#FFE087"/>
</g>
<path d="M591.615 725.362C434.931 784.495 304.528 633.808 150.627 697.593C93.2592 721.37 38.2985 773.405 0 816.06H1362.5V13.5271H1255.67C1189.37 196.787 1311.83 470.351 1078.77 475.832C984.618 478.046 946.743 402.53 852.745 407.387C669.506 416.856 758.165 662.506 591.615 725.362Z" fill="#5639A6"/>
<g style="mix-blend-mode:darken">
<path d="M633.486 725.362C476.802 784.495 346.399 633.808 192.498 697.593C135.118 721.375 80.1456 773.427 41.846 816.092H1373.6V13.5271H1297.55C1231.24 196.787 1353.71 470.351 1120.64 475.832C1026.49 478.046 988.614 402.53 894.616 407.387C711.377 416.856 800.036 662.506 633.486 725.362Z" fill="#20236D"/>
</g>
</g>
<path opacity="0.42" d="M891.343 220.832C868.272 244.104 850.863 272.879 825.282 293.358C806.449 308.485 783.623 318.631 767.09 336.19C742.992 361.789 736.068 398.663 732.32 433.547C728.701 467.292 727.078 501.291 729.039 535.164C731.795 582.441 743.658 632.905 779.782 663.729C792.427 674.503 807.383 682.23 822.632 688.839C864.064 706.787 908.398 717.16 953.516 719.465C976.867 720.629 1000.39 719.651 1023.83 718.651L1114.02 714.787C1139.71 713.693 1165.3 712.6 1190.89 710.831C1222.92 708.632 1256.57 704.768 1282.5 685.93C1316.48 661.239 1329.38 615.359 1325.3 573.644C1321.23 531.929 1302.91 493.123 1284.91 455.261C1266.9 417.397 1248.63 378.545 1244.63 336.83C1243.78 328.033 1243.54 318.993 1240.22 310.789C1236.65 301.98 1229.84 294.952 1223.77 287.622C1207.05 267.457 1195.12 243.825 1179.71 222.694C1114.64 133.423 963.3 148.34 891.343 220.832Z" fill="#D9DAE8"/>
<path opacity="0.42" d="M1031.91 681.625C1174.15 681.625 1289.46 667.606 1289.46 650.313C1289.46 633.019 1174.15 619.001 1031.91 619.001C889.663 619.001 774.353 633.019 774.353 650.313C774.353 667.606 889.663 681.625 1031.91 681.625Z" fill="#D9DAE8"/>
<path d="M923.93 613.893L925.342 628.681C925.342 628.681 919.657 637.257 912.242 637.804C904.828 638.351 902.295 634.802 902.295 634.802L903.463 613.043" fill="#AD7862"/>
<path d="M820.565 615.463L819.106 630.659C819.106 630.659 824.943 639.456 832.568 640.027C840.192 640.597 842.784 636.943 842.784 636.943L841.535 614.59" fill="#AD7862"/>
<path d="M838.826 283.2C838.826 283.2 809.333 297.396 808.668 302.05C808.002 306.704 812.007 421.155 812.007 421.155C812.007 421.155 821.581 433.524 850.899 433.524C880.928 433.524 890.479 425.17 890.001 420.981C888.342 406.541 896.13 302.981 895.464 298.082C894.799 293.183 867.595 283.293 867.595 283.293L838.826 283.2Z" fill="#D9DAE8"/>
<path opacity="0.58" d="M857.169 355.843C857.169 355.843 821.651 362.185 819.456 359.997C817.471 358.019 808.948 300.328 808.668 302.073C808.189 305.425 810.127 360.369 811.248 390.984C829.486 385.491 867.63 366.199 867.63 366.199C864.803 362.142 861.258 358.633 857.169 355.843Z" fill="url(#paint0_linear_4_9)"/>
<path d="M843.438 356.262C846.005 354.327 848.682 352.543 851.459 350.921C854.541 349.28 868.564 347.849 871.074 348.594C873.585 349.339 872.487 350.793 869.51 351.363C866.532 351.933 863.975 351.293 863.321 353.085C862.668 354.877 866.637 358.554 866.369 361.684C866.1 364.814 866.194 364.605 859.036 367.049C851.879 369.492 845.107 372.785 843.274 367.258C841.441 361.731 841.044 357.065 843.438 356.262Z" fill="#BB826C"/>
<path d="M838.92 265.467C838.92 265.467 838.698 275.718 838.826 283.223C838.92 288.821 840.845 299.514 852.836 299.514C864.828 299.514 866.147 285.876 865.948 283.2C865.796 281.292 866.719 277.382 865.948 271.273C865.143 264.769 839.584 260.917 838.92 265.467Z" fill="#BB826C"/>
<path d="M838.756 282.292C837.902 281.953 836.954 281.941 836.092 282.256C835.23 282.572 834.516 283.194 834.085 284.003C832.288 286.993 832.182 292.998 834.085 301.201C835.988 309.404 837.589 311.499 837.589 311.499C837.589 311.499 845.422 300.445 850.933 300.002C850.899 300.002 840.04 297.873 838.756 282.292Z" fill="#F2F2F2"/>
<path d="M866.03 282.292C866.884 281.953 867.832 281.941 868.694 282.256C869.556 282.572 870.27 283.194 870.701 284.003C872.498 286.993 872.604 292.998 870.701 301.201C868.798 309.404 867.197 311.499 867.197 311.499C867.197 311.499 859.363 300.445 853.853 300.002C853.887 300.002 864.781 297.873 866.03 282.292Z" fill="#F2F2F2"/>
<path d="M812.007 421.155C812.007 421.155 809.824 438.109 814.015 507.005C817.915 571.189 819.024 616.126 819.024 616.126C819.024 616.126 819.444 621.374 830.536 621.526C841.628 621.677 844.547 614.381 844.547 614.381L855.44 449.791L900.637 617.756C900.637 617.756 913.947 625.389 924.327 619.664C931.682 615.591 890.035 420.981 890.035 420.981C890.035 420.981 854.401 440.447 812.007 421.155Z" fill="#525263"/>
<path opacity="0.58" d="M812.007 421.155C812.007 421.155 809.824 438.109 814.015 507.005C817.915 571.189 819.024 616.126 819.024 616.126C819.024 616.126 819.444 621.374 830.536 621.526C841.628 621.677 844.547 614.381 844.547 614.381L855.44 449.791L900.637 617.756C900.637 617.756 913.947 625.389 924.327 619.664C931.682 615.591 890.035 420.981 890.035 420.981C890.035 420.981 854.401 440.447 812.007 421.155Z" fill="url(#paint1_linear_4_9)"/>
<path d="M814.155 296.756C809.959 299.609 806.335 303.221 803.472 307.403C798.802 314.279 791.084 371.947 794.645 387.562C796.152 394.172 850.689 369.504 850.689 369.504C850.689 369.504 849.404 358.449 843.683 354.679C843.683 354.679 816.911 360.405 814.914 358.415C812.918 356.425 814.155 296.756 814.155 296.756Z" fill="#D9DAE8"/>
<path d="M875.079 229.268C875.51 231.595 876.316 233.724 876.713 236.11C877.251 239.263 877.402 242.579 878.896 245.418C879.551 246.687 880.461 247.978 880.251 249.386C880.041 250.794 878.535 251.911 877.437 253.028C874.063 256.519 875.289 262.035 874.25 266.444C873.082 271.099 876.433 281.699 862.037 277.242C857.939 275.974 837.985 270.389 836.561 258.067C834.786 242.661 825.305 223.159 844.01 216.654C851.728 213.967 864.279 209.941 870.864 217.213C873.421 220.029 874.518 224.055 874.88 227.755C874.927 228.302 874.997 228.791 875.079 229.268Z" fill="#BB826C"/>
<path d="M864.874 204.076C866.285 203.996 867.696 204.215 869.015 204.721C870.334 205.227 871.529 206.006 872.522 207.008C873.689 208.346 874.507 210.22 876.2 210.778C877.005 211.046 877.893 210.953 878.71 211.197C881.197 211.919 881.828 215.188 881.384 217.725C880.94 220.262 879.889 222.891 880.695 225.335C881.161 226.254 881.465 227.246 881.594 228.267C881.536 230.106 879.376 231.246 877.531 231.118C875.686 230.99 874.028 230.047 872.23 229.524C869.124 228.605 865.785 229 862.562 229.407C860.399 229.535 858.283 230.093 856.339 231.048C855.371 231.536 854.569 232.297 854.03 233.237C853.493 234.176 853.245 235.252 853.315 236.331C853.606 237.16 853.682 238.048 853.537 238.914C853.204 239.478 852.783 239.985 852.288 240.415C850.793 242.149 851.319 244.755 851.786 246.989C852.3 249.444 851.471 256.065 848.283 252.807C846.123 250.597 847.465 246.989 843.729 245.546C838.254 243.394 836.012 252.621 841.756 259.393C847.501 266.165 842.118 270.493 838.394 271.634C834.891 272.693 830.665 255.926 830.104 253.947C827.933 246.186 823.414 232.921 827.769 225.44C829.1 223.171 830.805 221.006 831.271 218.458C831.61 216.748 831.389 214.967 831.96 213.292C832.415 212.212 833.108 211.247 833.987 210.47C834.867 209.693 835.91 209.122 837.039 208.8C839.322 208.167 841.675 207.815 844.045 207.753C848.119 207.401 852.16 206.732 856.129 205.752C858.899 204.881 861.758 204.319 864.652 204.076H864.874Z" fill="#3F3D56"/>
<path d="M866.205 278.255C866.205 278.255 851.634 272.903 845.037 269.888C845.037 269.888 858.756 282.874 865.844 282.782L866.205 278.255Z" fill="#AD7862"/>
<path d="M895.464 298.082C895.464 298.082 912.254 372.11 913.293 381.64C914.332 391.169 902.096 395.94 896.621 394.44C884.466 391.03 886.404 370.341 886.404 370.341L895.464 298.082Z" fill="#D9DAE8"/>
<path d="M912.885 378.929L929.943 433.815L918.267 442.03C918.267 442.03 893.631 406.994 891.682 396.557C889.732 386.119 889.02 371.842 899.317 372.121" fill="#D9DAE8"/>
<path d="M934.835 447.127C933.913 444.73 932.628 442.403 931.928 439.948C931.496 438.423 931.566 436.875 930.515 435.595C927.129 431.488 921.093 434.06 919.587 438.412C918.758 441.308 918.982 444.402 920.217 447.15C921.314 449.931 922.937 452.456 924.257 455.132C925.718 457.754 926.444 460.721 926.359 463.719C926.097 465.213 925.92 466.72 925.833 468.234C925.812 468.723 925.951 469.205 926.23 469.607C927.024 470.561 928.565 470.003 929.593 469.258C936.131 464.324 937.556 454.411 934.835 447.127Z" fill="#BB826C"/>
<path d="M918.22 443.915L914.834 438.865L928.728 429.894L932.605 435.375L918.22 443.915Z" fill="#F2F2F2"/>
<path d="M846.1 351.573L852.626 370.295L847.081 373.344C847.081 373.344 838.487 356.075 838.079 355.227C837.67 354.377 846.1 351.573 846.1 351.573Z" fill="#F2F2F2"/>
<path d="M798.393 632.277C795.369 633.266 792.1 634.953 791.247 638.013C790.395 641.073 792.333 644.18 794.972 645.786C797.611 647.392 800.81 647.73 803.904 647.904C816.049 648.606 828.227 647.305 839.947 644.052C841.45 643.766 842.841 643.064 843.963 642.028C845.318 640.504 845.352 638.246 845.318 636.21L845.166 626.994C845.217 626.472 845.081 625.948 844.78 625.517C844.565 625.324 844.311 625.179 844.035 625.09C843.76 625.002 843.468 624.972 843.181 625.004C837.927 624.9 833.537 626.261 828.423 624.294C825.13 623.026 822.41 621.246 819.082 623.073C816.548 624.435 814.914 626.971 812.24 628.262C807.921 630.346 802.9 630.834 798.393 632.277Z" fill="#525263"/>
<path d="M880.555 634.36C877.519 635.349 874.25 637.036 873.397 640.097C872.545 643.157 874.483 646.264 877.133 647.858C879.784 649.452 882.972 649.812 886.054 649.987C898.199 650.691 910.378 649.389 922.097 646.136C923.601 645.855 924.995 645.153 926.113 644.111C927.468 642.575 927.514 640.329 927.479 638.292L927.316 629.077C927.37 628.552 927.237 628.025 926.942 627.588C926.722 627.398 926.466 627.255 926.19 627.167C925.913 627.079 925.62 627.048 925.331 627.075C920.077 626.983 915.687 628.332 910.585 626.378C907.292 625.11 904.572 623.329 901.174 625.155C898.652 626.517 897.005 629.054 894.332 630.346C890.071 632.381 885.026 632.882 880.555 634.36Z" fill="#525263"/>
<path opacity="0.58" d="M798.393 632.277C795.369 633.266 792.1 634.953 791.247 638.013C790.395 641.073 792.333 644.18 794.972 645.786C797.611 647.392 800.81 647.73 803.904 647.904C816.049 648.606 828.227 647.305 839.947 644.052C841.45 643.766 842.841 643.064 843.963 642.028C845.318 640.504 845.352 638.246 845.318 636.21L845.166 626.994C845.217 626.472 845.081 625.948 844.78 625.517C844.565 625.324 844.311 625.179 844.035 625.09C843.76 625.002 843.468 624.972 843.181 625.004C837.927 624.9 833.537 626.261 828.423 624.294C825.13 623.026 822.41 621.246 819.082 623.073C816.548 624.435 814.914 626.971 812.24 628.262C807.921 630.346 802.9 630.834 798.393 632.277Z" fill="url(#paint2_linear_4_9)"/>
<path opacity="0.58" d="M880.555 634.36C877.519 635.349 874.25 637.036 873.397 640.097C872.545 643.157 874.483 646.264 877.133 647.858C879.784 649.452 882.972 649.812 886.054 649.987C898.199 650.691 910.378 649.389 922.097 646.136C923.601 645.855 924.995 645.153 926.113 644.111C927.468 642.575 927.514 640.329 927.479 638.292L927.316 629.077C927.37 628.552 927.237 628.025 926.942 627.588C926.722 627.398 926.466 627.255 926.19 627.167C925.913 627.079 925.62 627.048 925.331 627.075C920.077 626.983 915.687 628.332 910.585 626.378C907.292 625.11 904.572 623.329 901.174 625.155C898.652 626.517 897.005 629.054 894.332 630.346C890.071 632.381 885.026 632.882 880.555 634.36Z" fill="url(#paint3_linear_4_9)"/>
<path d="M884.746 326.718L886.299 386.434L890.421 392.45L884.746 326.718Z" fill="#D9DAE8"/>
<path d="M843.543 302.039C843.543 302.039 851.179 322.506 852.066 324.147C852.954 325.788 859.398 302.795 859.398 302.795C859.398 302.795 861.956 299.06 851.541 299.479C848.675 299.497 845.883 300.39 843.543 302.039Z" fill="#F2F2F2"/>
<path d="M889.907 419.992C889.907 419.992 867.723 426.019 857.121 425.635C846.52 425.251 811.913 418.316 811.913 418.316C811.913 418.316 808.061 433.14 810.08 434.606C812.1 436.072 822.468 435.165 837.145 435.77C851.821 436.375 860.753 443.019 872.464 442.752C884.174 442.484 891.144 426.636 891.144 426.636L889.907 419.992Z" fill="#F2F2F2"/>
<path d="M881.813 285.012L859.302 431.792C857.982 440.4 863.914 448.445 872.551 449.76L1116.44 486.909C1125.07 488.225 1133.15 482.314 1134.47 473.706L1156.98 326.925C1158.3 318.317 1152.37 310.273 1143.73 308.957L899.842 271.808C891.206 270.493 883.134 276.404 881.813 285.012Z" fill="#D9DAE8"/>
<path d="M880.996 290.36L858.485 437.141C857.165 445.749 863.096 453.794 871.734 455.11L1115.62 492.259C1124.26 493.574 1132.33 487.663 1133.65 479.055L1156.16 332.274C1157.48 323.667 1151.55 315.621 1142.91 314.306L899.025 277.157C890.388 275.841 882.316 281.752 880.996 290.36Z" fill="#D9DAE8"/>
<path opacity="0.58" d="M1156.16 332.257L1133.65 479.055C1133.49 480.096 1133.22 481.117 1132.85 482.104C1131.6 485.517 1129.19 488.392 1126.05 490.243C1122.91 492.094 1119.23 492.807 1115.62 492.262L871.786 455.109C869.727 454.803 867.749 454.096 865.965 453.027C864.18 451.957 862.626 450.548 861.389 448.879C860.153 447.21 859.259 445.314 858.759 443.301C858.259 441.286 858.163 439.194 858.476 437.143L868.798 369.899L880.987 290.356C881.623 286.223 883.879 282.511 887.257 280.033C890.637 277.554 894.866 276.514 899.014 277.138L1142.91 314.303C1147.05 314.934 1150.78 317.179 1153.26 320.546C1155.75 323.913 1156.79 328.125 1156.16 332.257Z" fill="url(#paint4_linear_4_9)"/>
<path opacity="0.58" d="M1143.16 414.861L1132.85 482.104C1131.6 485.517 1129.19 488.392 1126.05 490.243C1122.91 492.094 1119.23 492.807 1115.62 492.262L871.786 455.109C869.727 454.803 867.749 454.096 865.965 453.027C864.18 451.957 862.626 450.548 861.389 448.879C860.153 447.21 859.259 445.314 858.759 443.301C858.259 441.286 858.163 439.194 858.476 437.143L868.798 369.899C870.054 366.485 872.456 363.609 875.596 361.757C878.737 359.906 882.423 359.194 886.031 359.741L1129.92 396.906C1131.98 397.219 1133.95 397.931 1135.72 399.002C1137.5 400.074 1139.05 401.483 1140.28 403.15C1141.5 404.818 1142.39 406.71 1142.89 408.719C1143.38 410.728 1143.48 412.815 1143.16 414.861Z" fill="url(#paint5_linear_4_9)"/>
<path d="M892.838 330.329L887.994 361.914C887.262 366.685 890.55 371.143 895.337 371.873L933.621 377.704C938.408 378.433 942.882 375.157 943.613 370.386L948.457 338.801C949.189 334.03 945.901 329.571 941.114 328.842L902.831 323.011C898.044 322.282 893.57 325.558 892.838 330.329Z" fill="#FDB523"/>
<path d="M945.168 358.996L944.374 364.175L928.402 361.743C928.067 362.76 927.508 363.69 926.767 364.465C926.025 365.239 925.12 365.84 924.117 366.222L923.556 366.397L922.984 366.327C921.664 366.164 910.141 364.733 907.081 363.883C904.023 363.034 902.47 359.229 901.886 356.774L889.171 354.831L889.965 349.653L906.521 352.178L906.813 354.179C907.093 356.367 907.981 358.601 908.588 358.892C910.433 359.404 917.788 360.428 922.797 361.056C923.409 360.405 923.736 359.539 923.708 358.647L923.883 355.785L945.168 358.996Z" fill="#EFA92B"/>
<path d="M946.651 349.327L947.444 344.149L931.484 341.717C931.464 340.647 931.207 339.594 930.731 338.634C930.254 337.674 929.571 336.831 928.728 336.166L928.25 335.829L927.678 335.725C926.37 335.492 914.834 333.398 911.776 333.316C908.46 333.223 905.938 336.388 904.676 338.563L891.962 336.632L891.168 341.81L907.724 344.335L908.553 342.52C909.475 340.53 911.04 338.668 911.67 338.563C913.573 338.563 920.906 339.832 925.88 340.728C926.257 341.535 926.311 342.454 926.031 343.3L925.331 346.081L946.651 349.327Z" fill="#EFA92B"/>
<path d="M890.702 345.045L890.535 346.137L946.027 354.59L946.194 353.497L890.702 345.045Z" fill="#EFA92B"/>
<path d="M888.076 362.184L887.909 363.277L943.401 371.73L943.568 370.636L888.076 362.184Z" fill="#EFA92B"/>
<path d="M893.328 327.905L893.161 328.998L948.653 337.451L948.82 336.359L893.328 327.905Z" fill="#EFA92B"/>
<path d="M972.707 340.266L971.665 340.107C971.668 339.964 971.648 339.833 971.606 339.715C971.565 339.596 971.503 339.49 971.423 339.398C971.344 339.307 971.246 339.232 971.132 339.172C971.019 339.113 970.893 339.071 970.753 339.051C970.502 339.012 970.272 339.044 970.064 339.146C969.857 339.246 969.684 339.412 969.543 339.644C969.402 339.874 969.304 340.166 969.251 340.517C969.195 340.879 969.2 341.191 969.265 341.453C969.332 341.715 969.45 341.922 969.618 342.077C969.786 342.23 969.992 342.326 970.238 342.364C970.376 342.384 970.506 342.385 970.63 342.365C970.754 342.345 970.868 342.306 970.971 342.247C971.075 342.187 971.165 342.109 971.241 342.012C971.32 341.916 971.38 341.802 971.425 341.67L972.467 341.834C972.404 342.063 972.302 342.277 972.161 342.476C972.022 342.675 971.849 342.846 971.642 342.988C971.437 343.129 971.203 343.23 970.938 343.291C970.676 343.351 970.388 343.357 970.076 343.31C969.641 343.244 969.269 343.082 968.957 342.825C968.648 342.568 968.424 342.231 968.285 341.812C968.148 341.394 968.122 340.91 968.206 340.359C968.291 339.805 968.463 339.35 968.722 338.992C968.982 338.635 969.298 338.38 969.672 338.229C970.046 338.077 970.447 338.033 970.875 338.098C971.158 338.141 971.413 338.223 971.641 338.342C971.871 338.462 972.067 338.614 972.23 338.801C972.394 338.987 972.516 339.203 972.599 339.448C972.682 339.694 972.719 339.967 972.707 340.266ZM972.94 343.675L973.718 338.602L975.64 338.895C976.008 338.951 976.312 339.067 976.551 339.244C976.791 339.42 976.961 339.642 977.059 339.912C977.159 340.181 977.183 340.483 977.132 340.818C977.08 341.155 976.966 341.434 976.789 341.656C976.613 341.875 976.382 342.03 976.098 342.118C975.814 342.206 975.486 342.223 975.112 342.165L973.825 341.97L973.957 341.107L975.077 341.278C975.274 341.308 975.441 341.305 975.581 341.269C975.719 341.232 975.828 341.163 975.91 341.06C975.991 340.958 976.046 340.823 976.071 340.657C976.097 340.488 976.087 340.341 976.039 340.216C975.993 340.09 975.909 339.988 975.787 339.909C975.666 339.827 975.507 339.772 975.308 339.742L974.614 339.636L973.97 343.832L972.94 343.675ZM975.925 341.767L976.782 344.26L975.644 344.087L974.814 341.598L975.925 341.767ZM977.336 344.345L978.114 339.272L981.397 339.772L981.261 340.657L979.008 340.313L978.823 341.522L980.907 341.839L980.771 342.723L978.687 342.406L978.502 343.617L980.764 343.962L980.628 344.846L977.336 344.345ZM983.164 345.233L981.438 344.969L982.216 339.896L983.957 340.162C984.447 340.236 984.853 340.402 985.176 340.659C985.499 340.914 985.726 341.246 985.858 341.653C985.993 342.06 986.019 342.527 985.938 343.054C985.857 343.583 985.691 344.022 985.441 344.373C985.193 344.723 984.875 344.973 984.487 345.122C984.1 345.271 983.659 345.307 983.164 345.233ZM982.609 344.208L983.263 344.307C983.567 344.354 983.832 344.336 984.057 344.256C984.284 344.174 984.468 344.021 984.609 343.8C984.752 343.576 984.853 343.276 984.91 342.897C984.968 342.523 984.962 342.209 984.892 341.954C984.824 341.701 984.695 341.502 984.504 341.358C984.313 341.214 984.066 341.119 983.762 341.073L983.105 340.973L982.609 344.208ZM988.119 340.796L987.341 345.869L986.311 345.711L987.089 340.639L988.119 340.796ZM988.645 341.781L988.781 340.897L992.783 341.506L992.646 342.39L991.155 342.164L990.513 346.352L989.495 346.196L990.137 342.008L988.645 341.781ZM999.018 344.273L997.976 344.115C997.979 343.971 997.959 343.841 997.917 343.723C997.875 343.603 997.814 343.498 997.734 343.406C997.654 343.314 997.557 343.239 997.443 343.179C997.33 343.12 997.204 343.08 997.065 343.058C996.812 343.02 996.582 343.052 996.375 343.154C996.169 343.254 995.995 343.42 995.854 343.652C995.713 343.882 995.615 344.173 995.561 344.525C995.506 344.886 995.511 345.198 995.576 345.46C995.643 345.722 995.76 345.931 995.929 346.084C996.096 346.238 996.303 346.334 996.549 346.371C996.687 346.393 996.818 346.393 996.941 346.373C997.065 346.352 997.179 346.314 997.283 346.255C997.386 346.195 997.476 346.116 997.552 346.02C997.63 345.923 997.692 345.809 997.736 345.678L998.777 345.841C998.715 346.07 998.613 346.284 998.472 346.485C998.333 346.682 998.16 346.853 997.953 346.996C997.747 347.137 997.513 347.238 997.249 347.299C996.987 347.359 996.7 347.365 996.387 347.318C995.952 347.251 995.579 347.09 995.269 346.833C994.959 346.576 994.734 346.238 994.596 345.821C994.459 345.403 994.432 344.918 994.517 344.366C994.602 343.813 994.774 343.357 995.033 343C995.293 342.642 995.609 342.388 995.983 342.237C996.357 342.085 996.758 342.04 997.187 342.106C997.468 342.149 997.724 342.23 997.952 342.349C998.182 342.469 998.378 342.622 998.541 342.81C998.704 342.994 998.827 343.21 998.909 343.456C998.994 343.702 999.03 343.974 999.018 344.273ZM999.999 347.796L998.895 347.629L1001.36 342.812L1002.68 343.014L1003.58 348.343L1002.48 348.175L1001.86 344.075L1001.82 344.07L999.999 347.796ZM1000.24 345.793L1002.84 346.189L1002.71 347.026L1000.11 346.629L1000.24 345.793ZM1004.17 348.432L1004.95 343.36L1006.87 343.652C1007.24 343.708 1007.54 343.824 1007.78 344.001C1008.02 344.176 1008.19 344.399 1008.29 344.669C1008.39 344.938 1008.41 345.24 1008.36 345.575C1008.31 345.912 1008.2 346.192 1008.02 346.412C1007.84 346.632 1007.61 346.787 1007.33 346.875C1007.04 346.964 1006.72 346.98 1006.34 346.923L1005.06 346.727L1005.19 345.865L1006.31 346.036C1006.5 346.065 1006.67 346.062 1006.81 346.026C1006.95 345.99 1007.06 345.92 1007.14 345.817C1007.22 345.715 1007.28 345.58 1007.3 345.413C1007.33 345.245 1007.32 345.098 1007.27 344.973C1007.22 344.847 1007.14 344.745 1007.02 344.666C1006.9 344.584 1006.74 344.529 1006.54 344.499L1005.84 344.393L1005.2 348.589L1004.17 348.432ZM1007.16 346.524L1008.01 349.017L1006.87 348.844L1006.04 346.355L1007.16 346.524ZM1010.29 349.365L1008.57 349.101L1009.34 344.029L1011.09 344.295C1011.58 344.369 1011.98 344.535 1012.3 344.792C1012.63 345.047 1012.85 345.378 1012.99 345.785C1013.12 346.192 1013.15 346.659 1013.07 347.186C1012.99 347.715 1012.82 348.154 1012.57 348.505C1012.32 348.856 1012 349.106 1011.62 349.254C1011.23 349.404 1010.79 349.44 1010.29 349.365ZM1009.74 348.34L1010.39 348.439C1010.7 348.486 1010.96 348.469 1011.19 348.388C1011.41 348.306 1011.6 348.154 1011.74 347.932C1011.88 347.708 1011.98 347.408 1012.04 347.03C1012.1 346.655 1012.09 346.341 1012.02 346.086C1011.95 345.833 1011.82 345.634 1011.63 345.491C1011.44 345.346 1011.19 345.251 1010.89 345.205L1010.23 345.105L1009.74 348.34Z" fill="#D9DAE8"/>
<path opacity="0.32" d="M923.438 411.952L890.959 406.86C886.487 406.159 882.292 409.203 881.589 413.66L881.323 415.338C880.62 419.795 883.675 423.975 888.146 424.676L920.626 429.768C925.098 430.469 929.293 427.425 929.996 422.969L930.261 421.29C930.965 416.834 927.91 412.653 923.438 411.952Z" fill="#D9DAE8"/>
<path opacity="0.32" d="M984.135 424.419L951.585 419.176C947.104 418.454 942.883 421.49 942.159 425.955L941.886 427.637C941.162 432.103 944.208 436.31 948.689 437.031L981.239 442.274C985.72 442.995 989.941 439.961 990.665 435.494L990.938 433.813C991.662 429.346 988.616 425.14 984.135 424.419Z" fill="#D9DAE8"/>
<path opacity="0.32" d="M1046.12 433.322L1013.64 428.231C1009.17 427.53 1004.98 430.574 1004.27 435.031L1004.01 436.709C1003.31 441.166 1006.36 445.346 1010.83 446.047L1043.31 451.139C1047.78 451.84 1051.98 448.796 1052.68 444.34L1052.95 442.661C1053.65 438.205 1050.6 434.023 1046.12 433.322Z" fill="#D9DAE8"/>
<path opacity="0.32" d="M1107.46 444.02L1074.98 438.928C1070.51 438.227 1066.32 441.271 1065.61 445.728L1065.35 447.406C1064.64 451.862 1067.7 456.044 1072.17 456.745L1104.65 461.836C1109.12 462.537 1113.32 459.493 1114.02 455.036L1114.28 453.359C1114.99 448.902 1111.93 444.721 1107.46 444.02Z" fill="#D9DAE8"/>
<path d="M1228.88 610.262L1245.05 637.583C1248.33 636.801 1251.23 634.901 1253.26 632.212C1255.29 629.522 1256.31 626.212 1256.15 622.852L1242.14 596.613" fill="#F1DFCE"/>
<path d="M1245.05 637.583C1245.05 637.583 1240.38 657.271 1233.92 659.575C1227.46 661.879 1243 658.842 1246.04 655.817C1249.07 652.791 1253.58 631.637 1253.58 631.637" fill="#F1DFCE"/>
<path d="M1120.33 616.999L1117.85 645.565C1120.68 646.707 1123.82 646.828 1126.73 645.908C1129.63 644.988 1132.13 643.085 1133.78 640.527L1137.28 613.857" fill="#F1DFCE"/>
<path d="M1117.85 645.565C1117.85 645.565 1100.34 661.274 1094.37 659.528C1088.4 657.783 1105.17 660.11 1108.99 659.458C1112.81 658.807 1132.15 647.404 1132.15 647.404" fill="#F1DFCE"/>
<path d="M1133.89 639.596C1133.89 639.596 1137.85 643.575 1137.4 646.915C1136.94 650.255 1135.19 664.368 1135.19 664.368C1134.34 664.606 1133.44 664.519 1132.66 664.125C1131.37 663.45 1131.68 648.695 1129.01 652.64C1123.99 660.064 1125.64 662.879 1114.25 664.555C1111.09 665.02 1080.71 661.623 1098.6 657.481C1098.6 657.481 1109.77 658.353 1114.58 653.559C1119.39 648.765 1127.61 638.351 1133.89 639.596Z" fill="#525263"/>
<path d="M1146.53 259.521C1146.4 261.034 1145.16 278.58 1146.53 286.062C1147.89 293.545 1152.67 303.761 1158.82 302.353C1164.97 300.945 1167.69 298.943 1167.69 302.353C1167.48 305.782 1167.02 309.192 1166.33 312.557C1166.33 312.557 1173.84 318.003 1180.67 315.955C1187.5 313.907 1188.84 308.473 1188.84 308.473C1188.84 308.473 1185.43 304.389 1186.8 293.498C1188.16 282.607 1198.4 258.8 1184.06 247.222C1175.35 240.252 1148.27 238.984 1146.53 259.521Z" fill="#F1DFCE"/>
<path d="M1145.85 243.196C1145.85 243.196 1136.07 251.272 1142.35 263.128C1144.21 266.619 1151.24 257.485 1160.13 259.521C1169.01 261.558 1166.96 284.026 1169 283.34C1171.05 282.653 1168.33 275.194 1172.41 271.087C1176.5 266.979 1180.58 273.135 1179.93 279.232C1179.28 285.329 1176.43 286.04 1176.43 286.04C1176.43 286.04 1176.94 292.614 1178 294.743C1178.8 296.314 1189.91 291.578 1189.91 291.578C1189.91 291.578 1199 266.979 1196.92 258.823C1194.84 250.667 1185.31 239.042 1175.06 239.042C1164.81 239.042 1152.67 235.702 1145.85 243.196Z" fill="#3F3D56"/>
<path d="M1110.6 357.914C1110.6 357.914 1107.1 344.44 1102.59 341.472C1098.08 338.506 1096.45 336.272 1095.42 337.11C1094.39 337.947 1096.23 340.822 1096.23 340.822C1096.23 340.822 1099.61 344.067 1097.29 344.44C1094.97 344.813 1078.45 334.316 1073.78 334.689C1069.11 335.062 1071.91 341.938 1070.69 344.998C1069.48 348.059 1081.04 356.239 1085.7 358.833C1090.36 361.428 1096.6 365.99 1099.58 367.665C1102.56 369.34 1110.68 361.917 1110.6 357.914Z" fill="#F1DFCE"/>
<path d="M1219.07 448.825L1214.65 514.906L1255.02 615.987C1255.02 615.987 1256.53 625.668 1236.87 628.611L1183.16 521.387L1172.42 439.249" fill="#D9DAE8"/>
<path opacity="0.58" d="M1219.07 448.825L1214.65 514.906L1255.02 615.987C1255.02 615.987 1256.53 625.668 1236.87 628.611L1183.16 521.387L1172.42 439.249" fill="url(#paint6_linear_4_9)"/>
<path d="M1146.78 442.228L1113.86 634.604C1113.86 634.604 1120.41 642.296 1140.22 637.746L1159.01 551.791L1202.65 451.723C1202.65 451.723 1174.19 425.519 1146.78 442.228Z" fill="#D9DAE8"/>
<path opacity="0.58" d="M1146.78 442.228L1113.86 634.604C1113.86 634.604 1120.41 642.296 1140.22 637.746L1159.01 551.791L1202.65 451.723C1202.65 451.723 1174.19 425.519 1146.78 442.228Z" fill="url(#paint7_linear_4_9)"/>
<path d="M1181.29 341.24C1181.29 341.24 1170.67 395.429 1166.94 404.598C1163.2 413.766 1148.76 430.382 1137.23 421.295C1133.85 418.409 1130.71 415.258 1127.83 411.87L1126.18 410.032C1112.99 394.835 1096.23 371.842 1096.23 371.842C1097 356.32 1110.6 357.972 1110.6 357.972L1136.38 389.087C1136.38 389.087 1152.03 327.242 1160.46 316.444C1165.61 309.881 1178.55 308.59 1178.55 308.59C1187.03 310.708 1181.29 341.24 1181.29 341.24Z" fill="white"/>
<path d="M1195.13 312.872C1207.05 327.731 1217.69 433.885 1220.75 440.657C1220.75 440.657 1200.71 448.919 1169.84 450.815C1161.35 451.232 1152.85 450.317 1144.65 448.104C1144.65 448.104 1158.41 359.962 1158.84 347.511C1159.28 335.062 1164.96 312.534 1164.96 312.534C1164.96 312.534 1185.68 301.085 1195.13 312.872Z" fill="#F2F2F2"/>
<path d="M1145.64 448.43C1145.64 448.43 1140.76 460.846 1141.97 461.229C1143.19 461.613 1155.33 455.039 1159.08 457.273C1162.83 459.507 1173.85 470.957 1188.58 474.017C1203.32 477.077 1218.43 465.57 1219.07 457.087C1219.71 448.604 1220.75 440.681 1220.75 440.681C1220.75 440.681 1154.8 452.642 1145.64 448.43Z" fill="#F2F2F2"/>
<path opacity="0.58" d="M1168.98 359.997C1168.98 359.997 1157.98 411.882 1155.05 417.723C1152.12 423.564 1148.25 423.331 1148.25 423.331L1147.72 428.195L1157.24 425.03L1168.98 359.997Z" fill="url(#paint8_linear_4_9)"/>
<path d="M1188.75 247.827C1188.75 247.827 1197.54 234.876 1207.43 243.545C1217.32 252.214 1206.05 267.084 1208.52 280.314C1211 293.545 1221.16 310.917 1215.66 315.641C1210.16 320.365 1214.29 315.641 1214.29 315.641C1214.29 315.641 1212.33 302.736 1203.01 300.189C1193.7 297.641 1187.93 290.228 1187.65 277.789" fill="#3F3D56"/>
<path d="M1257.82 621.258C1257.82 621.258 1255.01 622.828 1253.6 629.229C1252.2 635.628 1248.55 651.557 1244.87 653.338C1241.19 655.118 1239.81 653.234 1238.83 653.338C1237.85 653.443 1230.57 660.995 1230.95 661.728C1231.34 662.461 1231.99 662.891 1237.43 661.728C1242.87 660.564 1253.16 656.794 1253.42 655.223C1253.67 653.652 1256.32 639.712 1258.79 639.503C1261.25 639.293 1259.23 654.385 1260.11 654.489C1260.98 654.595 1262.27 654.804 1262.44 653.128C1262.62 651.453 1265.06 633.522 1264.17 629.333C1263.28 625.144 1261.25 622.619 1257.82 621.258Z" fill="#525263"/>
<path opacity="0.58" d="M1133.89 639.596C1133.89 639.596 1137.85 643.575 1137.4 646.915C1136.94 650.255 1135.19 664.368 1135.19 664.368C1134.34 664.606 1133.44 664.519 1132.66 664.125C1131.37 663.45 1131.68 648.695 1129.01 652.64C1123.99 660.064 1125.64 662.879 1114.25 664.555C1111.09 665.02 1080.71 661.623 1098.6 657.481C1098.6 657.481 1109.77 658.353 1114.58 653.559C1119.39 648.765 1127.61 638.351 1133.89 639.596Z" fill="url(#paint9_linear_4_9)"/>
<path opacity="0.58" d="M1257.82 621.258C1257.82 621.258 1255.01 622.828 1253.6 629.229C1252.2 635.628 1248.55 651.557 1244.87 653.338C1241.19 655.118 1239.81 653.234 1238.83 653.338C1237.85 653.443 1230.57 660.995 1230.95 661.728C1231.34 662.461 1231.99 662.891 1237.43 661.728C1242.87 660.564 1253.16 656.794 1253.42 655.223C1253.67 653.652 1256.32 639.712 1258.79 639.503C1261.25 639.293 1259.23 654.385 1260.11 654.489C1260.98 654.595 1262.27 654.804 1262.44 653.128C1262.62 651.453 1265.06 633.522 1264.17 629.333C1263.28 625.144 1261.25 622.619 1257.82 621.258Z" fill="url(#paint10_linear_4_9)"/>
<path d="M1175.62 291.078C1177.6 291.078 1179.2 289.484 1179.2 287.517C1179.2 285.55 1177.6 283.956 1175.62 283.956C1173.65 283.956 1172.05 285.55 1172.05 287.517C1172.05 289.484 1173.65 291.078 1175.62 291.078Z" fill="#D9DAE8"/>
<path d="M1106.77 426.17L1164.38 433.233L1159.45 505.702L1150.52 510.298L1101.22 496.486L1106.77 426.17Z" fill="#D9DAE8"/>
<path opacity="0.58" d="M1106.77 426.17L1164.38 433.233L1159.45 505.702L1150.52 510.298L1101.22 496.486L1106.77 426.17Z" fill="url(#paint11_linear_4_9)"/>
<path d="M1097.84 430.778L1155.45 437.841L1150.52 510.298L1092.29 501.094L1097.84 430.778Z" fill="#D9DAE8"/>
<path d="M1097.84 430.778L1106.77 426.17L1164.38 433.233L1155.45 437.841L1097.84 430.778Z" fill="#D9DAE8"/>
<path opacity="0.58" d="M1097.84 430.778L1106.77 426.17L1164.38 433.233L1155.45 437.841L1097.84 430.778Z" fill="url(#paint12_linear_4_9)"/>
<path d="M1156.32 429.277C1156.37 429.07 1156.37 428.855 1156.32 428.649C1156.23 428.439 1156.08 428.264 1155.88 428.149C1155.06 427.726 1154.13 427.549 1153.21 427.636C1146.87 427.636 1140.51 428.021 1134.17 428.369C1133.76 428.36 1133.36 428.469 1133.01 428.684C1132.75 428.916 1132.55 429.208 1132.42 429.533C1131.92 430.667 1131.5 431.833 1131.16 433.024C1131.05 433.253 1130.99 433.503 1130.99 433.757C1130.99 434.01 1131.05 434.262 1131.16 434.49C1131.4 434.74 1131.71 434.914 1132.05 434.99C1134.1 435.531 1136.19 435.87 1138.31 436.003L1152.17 437.353C1153.25 437.457 1154.08 437.794 1154.73 436.91C1155.09 436.249 1155.33 435.533 1155.45 434.793C1155.96 432.996 1156.25 431.144 1156.32 429.277Z" fill="#D9DAE8"/>
<path opacity="0.58" d="M1155.81 429.475C1155.86 429.272 1155.86 429.061 1155.81 428.859C1155.72 428.644 1155.57 428.468 1155.37 428.358C1154.54 427.929 1153.61 427.751 1152.69 427.846C1146.35 427.846 1140 428.23 1133.66 428.579C1133.27 428.52 1132.87 428.606 1132.54 428.821C1132.21 429.035 1131.98 429.363 1131.87 429.743C1131.37 430.875 1130.95 432.042 1130.61 433.233C1130.5 433.46 1130.44 433.709 1130.44 433.96C1130.44 434.212 1130.5 434.461 1130.61 434.688C1130.85 434.946 1131.16 435.122 1131.5 435.188C1133.55 435.727 1135.64 436.07 1137.76 436.212L1151.62 437.551C1152.7 437.655 1153.53 438.004 1154.19 437.12C1154.54 436.457 1154.78 435.742 1154.9 435.002C1155.42 433.203 1155.73 431.347 1155.81 429.475Z" fill="url(#paint13_linear_4_9)"/>
<path d="M1157.68 432.873C1157.72 432.753 1157.72 432.62 1157.68 432.5C1157.57 432.352 1157.41 432.242 1157.23 432.186C1156.39 431.885 1155.49 431.735 1154.59 431.744C1148.25 431.465 1141.9 431.36 1135.56 431.267C1135.17 431.236 1134.77 431.279 1134.4 431.395C1134.15 431.491 1133.94 431.657 1133.79 431.872C1133.27 432.5 1132.81 433.179 1132.42 433.896C1132.27 434.176 1132.14 434.502 1132.42 434.757C1132.68 434.94 1132.98 435.059 1133.29 435.107C1135.34 435.529 1137.42 435.832 1139.51 436.014L1153.31 437.48C1154.38 437.597 1155.21 437.841 1155.89 437.353C1156.24 437.002 1156.5 436.582 1156.67 436.119C1157.21 435.109 1157.55 434.008 1157.68 432.873Z" fill="#D9DAE8"/>
<path opacity="0.58" d="M1157.15 432.965C1157.2 432.85 1157.2 432.721 1157.15 432.605C1157.05 432.452 1156.9 432.338 1156.72 432.279C1155.87 431.976 1154.97 431.83 1154.07 431.849C1147.73 431.558 1141.39 431.465 1135.04 431.36C1134.64 431.335 1134.25 431.379 1133.87 431.488C1133.63 431.595 1133.43 431.764 1133.28 431.976C1132.75 432.602 1132.29 433.276 1131.9 433.99C1131.75 434.269 1131.62 434.606 1131.9 434.862C1132.16 435.041 1132.46 435.156 1132.77 435.2C1134.83 435.628 1136.9 435.931 1139 436.108L1152.8 437.585C1153.87 437.702 1154.7 437.946 1155.38 437.446C1155.72 437.101 1155.99 436.683 1156.15 436.224C1156.69 435.211 1157.03 434.106 1157.15 432.965Z" fill="url(#paint14_linear_4_9)"/>
<path d="M1120.71 423.227C1121.11 422.327 1121.83 421.601 1122.72 421.179C1123.51 420.987 1124.34 420.987 1125.14 421.179C1128.64 421.62 1132.34 421.341 1135.45 422.959C1135.87 423.137 1136.22 423.442 1136.46 423.832C1136.66 424.298 1136.71 424.814 1136.6 425.309C1136.3 427.832 1135.74 430.316 1134.92 432.722C1134.82 433.063 1134.66 433.383 1134.44 433.664C1134.15 434.013 1134.34 435.049 1133.88 435.06C1129.85 435.141 1124.97 433.815 1120.95 433.617C1118.49 433.501 1118.4 432.57 1118.61 429.941C1118.83 427.581 1119.55 425.293 1120.71 423.227Z" fill="#D9DAE8"/>
<path opacity="0.58" d="M1120.71 423.227C1121.11 422.327 1121.83 421.601 1122.72 421.179C1123.51 420.987 1124.34 420.987 1125.14 421.179C1128.64 421.62 1132.34 421.341 1135.45 422.959C1135.87 423.137 1136.22 423.442 1136.46 423.832C1136.66 424.298 1136.71 424.814 1136.6 425.309C1136.3 427.832 1135.74 430.316 1134.92 432.722C1134.82 433.063 1134.66 433.383 1134.44 433.664C1134.15 434.013 1134.34 435.049 1133.88 435.06C1129.85 435.141 1124.97 433.815 1120.95 433.617C1118.49 433.501 1118.4 432.57 1118.61 429.941C1118.83 427.581 1119.55 425.293 1120.71 423.227Z" fill="url(#paint15_linear_4_9)"/>
<path d="M1136.38 389.087C1136.38 389.087 1146.52 412.254 1145.72 437.225L1148.55 437.538C1148.55 437.538 1145.31 397.779 1137.3 386.411C1137.27 386.411 1133.32 384.433 1136.38 389.087Z" fill="#D9DAE8"/>
<path d="M1127.18 413.674C1127.18 414.057 1127.24 414.43 1127.26 414.837C1127.28 415.347 1127.25 415.857 1127.17 416.361C1126.51 421.249 1125.88 426.135 1125.24 431.022L1122.56 430.941C1122.55 426.214 1123.09 421.502 1124.16 416.896C1124.64 414.619 1125.29 412.378 1126.09 410.194C1126.09 410.136 1126.09 410.066 1126.18 409.996L1127.83 411.893C1127.5 412.439 1127.28 413.043 1127.18 413.674Z" fill="#D9DAE8"/>
<path d="M1104.51 422.016C1104.51 421.742 1104.62 421.478 1104.8 421.272C1105 421.116 1105.25 421.026 1105.51 421.015C1111.67 420.097 1117.95 420.247 1124.06 421.458L1124.98 431.453C1125.07 432.245 1125.05 433.198 1124.39 433.617C1124.01 433.813 1123.59 433.89 1123.16 433.839C1118.18 433.746 1113.21 433.221 1108.31 432.268C1107.48 432.104 1105.72 432.081 1105.08 431.512C1104.44 430.941 1104.51 429.905 1104.4 429.184C1104.1 426.802 1104.13 424.389 1104.51 422.016Z" fill="#D9DAE8"/>
<path opacity="0.58" d="M1104.51 422.016C1104.51 421.742 1104.62 421.478 1104.8 421.272C1105 421.116 1105.25 421.026 1105.51 421.015C1111.67 420.097 1117.95 420.247 1124.06 421.458L1124.98 431.453C1125.07 432.245 1125.05 433.198 1124.39 433.617C1124.01 433.813 1123.59 433.89 1123.16 433.839C1118.18 433.746 1113.21 433.221 1108.31 432.268C1107.48 432.104 1105.72 432.081 1105.08 431.512C1104.44 430.941 1104.51 429.905 1104.4 429.184C1104.1 426.802 1104.13 424.389 1104.51 422.016Z" fill="url(#paint16_linear_4_9)"/>
<path opacity="0.58" d="M1092.29 501.094L1126.79 506.923L1110.78 432.722L1097.84 430.778L1092.29 501.094Z" fill="url(#paint17_linear_4_9)"/>
<path d="M921.443 460.124C921.472 459.738 921.614 459.371 921.852 459.065C922.116 458.821 922.443 458.656 922.797 458.588C923.82 458.265 924.922 458.294 925.926 458.67C926.429 458.869 926.853 459.228 927.134 459.69C927.414 460.152 927.536 460.692 927.479 461.229C928.078 460.119 928.806 459.084 929.651 458.146C930.025 457.727 930.527 457.296 931.064 457.424C931.307 457.501 931.525 457.642 931.694 457.831C932.304 458.428 932.761 459.164 933.025 459.974C933.289 460.784 933.353 461.646 933.212 462.486C933.43 461.055 934.145 459.746 935.232 458.786C935.391 458.627 935.594 458.518 935.816 458.472C936.236 458.472 936.575 458.821 936.797 459.182C937.823 460.937 938.203 462.995 937.87 464.999C937.908 463.822 938.211 462.669 938.758 461.625C938.875 461.392 939.05 461.148 939.307 461.136C939.487 461.158 939.654 461.245 939.773 461.381C940.362 461.941 940.782 462.654 940.988 463.439C941.194 464.223 941.178 465.049 940.942 465.826C940.276 467.967 938.046 469.246 935.874 469.781C934.787 470.037 933.675 470.166 932.558 470.166C930.121 470.063 927.709 469.648 925.378 468.933C924.629 468.792 923.917 468.499 923.287 468.072C920.824 466.082 921.011 462.881 921.443 460.124Z" fill="#BB826C"/>
<defs>
<linearGradient id="paint0_linear_4_9" x1="808.597" y1="346.511" x2="867.63" y2="346.511" gradientUnits="userSpaceOnUse">
<stop offset="0.01"/>
<stop offset="0.13" stop-opacity="0.69"/>
<stop offset="1" stop-opacity="0"/>
</linearGradient>
<linearGradient id="paint1_linear_4_9" x1="890.035" y1="472.54" x2="805.482" y2="659.431" gradientUnits="userSpaceOnUse">
<stop offset="0.01"/>
<stop offset="0.13" stop-opacity="0.69"/>
<stop offset="1" stop-opacity="0"/>
</linearGradient>
<linearGradient id="paint2_linear_4_9" x1="831.213" y1="585.897" x2="781.631" y2="788.614" gradientUnits="userSpaceOnUse">
<stop offset="0.01"/>
<stop offset="0.13" stop-opacity="0.69"/>
<stop offset="1" stop-opacity="0"/>
</linearGradient>
<linearGradient id="paint3_linear_4_9" x1="909.183" y1="604.967" x2="859.59" y2="807.685" gradientUnits="userSpaceOnUse">
<stop offset="0.01"/>
<stop offset="0.13" stop-opacity="0.69"/>
<stop offset="1" stop-opacity="0"/>
</linearGradient>
<linearGradient id="paint4_linear_4_9" x1="983.688" y1="539.532" x2="1046.39" y2="121.54" gradientUnits="userSpaceOnUse">
<stop offset="0.01"/>
<stop offset="0.13" stop-opacity="0.69"/>
<stop offset="1" stop-opacity="0"/>
</linearGradient>
<linearGradient id="paint5_linear_4_9" x1="975.384" y1="617.618" x2="1024.82" y2="239.039" gradientUnits="userSpaceOnUse">
<stop offset="0.01"/>
<stop offset="0.13" stop-opacity="0.69"/>
<stop offset="1" stop-opacity="0"/>
</linearGradient>
<linearGradient id="paint6_linear_4_9" x1="1147.37" y1="486.526" x2="1329.08" y2="604.999" gradientUnits="userSpaceOnUse">
<stop offset="0.01"/>
<stop offset="0.13" stop-opacity="0.69"/>
<stop offset="1" stop-opacity="0"/>
</linearGradient>
<linearGradient id="paint7_linear_4_9" x1="1090.55" y1="477.625" x2="1251.76" y2="634.759" gradientUnits="userSpaceOnUse">
<stop offset="0.01"/>
<stop offset="0.13" stop-opacity="0.69"/>
<stop offset="1" stop-opacity="0"/>
</linearGradient>
<linearGradient id="paint8_linear_4_9" x1="1147.72" y1="394.067" x2="1168.98" y2="394.067" gradientUnits="userSpaceOnUse">
<stop offset="0.01"/>
<stop offset="0.13" stop-opacity="0.69"/>
<stop offset="1" stop-opacity="0"/>
</linearGradient>
<linearGradient id="paint9_linear_4_9" x1="1130.74" y1="568.012" x2="1083" y2="839.8" gradientUnits="userSpaceOnUse">
<stop offset="0.01"/>
<stop offset="0.13" stop-opacity="0.69"/>
<stop offset="1" stop-opacity="0"/>
</linearGradient>
<linearGradient id="paint10_linear_4_9" x1="1258.52" y1="590.457" x2="1210.78" y2="862.247" gradientUnits="userSpaceOnUse">
<stop offset="0.01"/>
<stop offset="0.13" stop-opacity="0.69"/>
<stop offset="1" stop-opacity="0"/>
</linearGradient>
<linearGradient id="paint11_linear_4_9" x1="1112.4" y1="472.272" x2="1188.98" y2="453.113" gradientUnits="userSpaceOnUse">
<stop offset="0.01"/>
<stop offset="0.13" stop-opacity="0.69"/>
<stop offset="1" stop-opacity="0"/>
</linearGradient>
<linearGradient id="paint12_linear_4_9" x1="1131.32" y1="417.606" x2="1130.4" y2="480.243" gradientUnits="userSpaceOnUse">
<stop offset="0.01"/>
<stop offset="0.13" stop-opacity="0.69"/>
<stop offset="1" stop-opacity="0"/>
</linearGradient>
<linearGradient id="paint13_linear_4_9" x1="1136.11" y1="439.912" x2="1157.71" y2="419.162" gradientUnits="userSpaceOnUse">
<stop offset="0.01"/>
<stop offset="0.13" stop-opacity="0.69"/>
<stop offset="1" stop-opacity="0"/>
</linearGradient>
<linearGradient id="paint14_linear_4_9" x1="1137.38" y1="440.674" x2="1158.25" y2="422.488" gradientUnits="userSpaceOnUse">
<stop offset="0.01"/>
<stop offset="0.13" stop-opacity="0.69"/>
<stop offset="1" stop-opacity="0"/>
</linearGradient>
<linearGradient id="paint15_linear_4_9" x1="1123.05" y1="431.371" x2="1136.19" y2="423.116" gradientUnits="userSpaceOnUse">
<stop offset="0.01"/>
<stop offset="0.13" stop-opacity="0.69"/>
<stop offset="1" stop-opacity="0"/>
</linearGradient>
<linearGradient id="paint16_linear_4_9" x1="1113.1" y1="438.482" x2="1116.61" y2="414.38" gradientUnits="userSpaceOnUse">
<stop offset="0.01"/>
<stop offset="0.13" stop-opacity="0.69"/>
<stop offset="1" stop-opacity="0"/>
</linearGradient>
<linearGradient id="paint17_linear_4_9" x1="1053.78" y1="497.406" x2="1169.46" y2="440.602" gradientUnits="userSpaceOnUse">
<stop offset="0.01"/>
<stop offset="0.13" stop-opacity="0.69"/>
<stop offset="1" stop-opacity="0"/>
</linearGradient>
<clipPath id="clip0_4_9">
<rect width="1385" height="801" fill="white"/>
</clipPath>
</defs>
</svg>
